<svg width="158" height="81" viewBox="0 0 158 81" fill="none" xmlns="http://www.w3.org/2000/svg">
<g clip-path="url(#clip0_1641_902)">
<path fill-rule="evenodd" clip-rule="evenodd" d="M71.2 46.6581H73.7191L76.8609 36.8775L80.6348 46.6581H83.5313L87.9374 33.4584H85.5504L82.5312 42.6249L79.0026 33.4584H74.5965L75.2287 34.8059L71.2 46.6581ZM111.081 33.2109C114.223 33.2109 117.752 33.8251 115.61 40.0583C113.846 45.4389 110.204 46.9056 106.552 46.9056C102.656 46.9056 100.137 45.4389 101.901 40.0583C103.665 34.9251 106.93 33.2109 111.081 33.2109ZM105.42 40.0583C104.288 43.4773 104.788 45.3106 107.052 45.3106C110.072 45.3106 111.081 43.1107 112.213 40.0583C113.846 35.2917 112.336 34.8059 110.581 34.8059C108.317 34.8059 106.684 36.2725 105.42 40.0583ZM100.137 35.9059C96.2401 33.9534 93.721 34.9251 93.5983 36.6392C93.3436 38.72 100.014 38.8391 99.0045 42.5057C97.4949 48.4914 88.0601 46.7864 87.0505 46.2914L87.8053 43.844C91.5793 46.0439 95.2305 45.4298 95.3532 43.1107C95.4758 40.9107 88.9375 40.6632 89.947 37.125C91.4566 31.9918 99.5045 33.3301 100.891 33.5776L100.137 35.8967V35.9059ZM51.0754 33.4584C54.3493 33.4584 58.746 33.8251 57.2364 39.2058C55.2268 46.2914 50.8207 46.6581 45.4145 46.6581H42.1406L46.0372 34.7967L45.4145 33.4584H51.0754ZM53.8398 39.3249C55.2268 35.1726 53.0851 35.0442 50.9433 35.0442H49.4338C49.352 35.0442 49.2671 35.0839 49.179 35.1634L46.2825 44.449C46.0278 44.8156 46.1599 45.0631 46.6599 45.0631C51.4434 45.1823 52.4435 43.844 53.8304 39.3158L53.8398 39.3249ZM72.2095 35.0442H65.5391L64.2842 38.9583H68.813L68.3129 40.5441H63.6615L62.5293 44.4581C62.4067 44.7056 62.4067 45.0723 62.9067 45.0723H69.1998L68.6997 46.6581H58.3874L62.2746 34.7967L61.6425 33.4493H72.7095L72.2095 35.0351V35.0442Z" fill="#F0EDE8"/>
</g>
<defs>
<clipPath id="clip0_1641_902">
<rect width="74.1296" height="13.6855" fill="white" transform="translate(42.1406 33.2031)"/>
</clipPath>
</defs>
</svg>
