<svg width="158" height="81" viewBox="0 0 158 81" fill="none" xmlns="http://www.w3.org/2000/svg">
<g clip-path="url(#clip0_1641_914)">
<path d="M26.2812 48.0648L30.8781 43.3832V37.8514H28.834V36.3951H35.7916L39.0928 41.018V35.0268L43.1138 30.9219H29.8608L26.2812 34.5674V48.0648Z" fill="#F0EDE8"/>
<path d="M40.622 35.6631V43.6873H39.3072L36.006 39.0643V43.6873H34.4801V37.8426H32.4264V44L27.3594 49.1605H40.622L44.2015 45.5149V32.0078L40.622 35.6631Z" fill="#F0EDE8"/>
<path d="M49.9309 38.1596H47.7812V36.3906H54.0671V38.1596H51.9174V43.6817H49.9309V38.1596Z" fill="#F0EDE8"/>
<path d="M55.1094 36.3906H60.877V38.1108H57.0767V39.2152H60.5123V40.8083H57.0767V41.9616H60.925V43.6817H55.1094V36.3906Z" fill="#F0EDE8"/>
<path d="M64.2007 39.9775L61.8495 36.3906H64.1335L65.4003 38.4431L66.6767 36.3906H68.9031L66.5519 39.958L69.0087 43.6915H66.7246L65.3523 41.4924L63.9704 43.6915H61.7344L64.1911 39.9775H64.2007Z" fill="#F0EDE8"/>
<path d="M69.9531 36.3906H71.9396V39.1175H74.4924V36.3906H76.4789V43.6915H74.4924V40.9158H71.9396V43.6915H69.9531V36.3906Z" fill="#F0EDE8"/>
<path d="M77.6641 40.0343C77.6641 37.9428 79.3243 36.2422 81.5315 36.2422C83.7388 36.2422 85.3798 37.9232 85.3798 40.0343C85.3798 42.1454 83.7196 43.8265 81.5123 43.8265C79.2955 43.8265 77.6641 42.1454 77.6641 40.0343ZM83.3549 40.0343C83.3549 38.9788 82.6063 38.0601 81.5123 38.0601C80.4183 38.0601 79.6986 38.9592 79.6986 40.0343C79.6986 41.1094 80.4471 42.0086 81.5315 42.0086C82.6255 42.0086 83.3549 41.1094 83.3549 40.0343Z" fill="#F0EDE8"/>
<path d="M86.5781 36.3906H88.5646V39.1175H91.1173V36.3906H93.1039V43.6915H91.1173V40.9158H88.5646V43.6915H86.5781V36.3906Z" fill="#F0EDE8"/>
<path d="M94.6484 36.3906H96.6158V40.4955L99.3892 36.3906H101.241V43.6915H99.274V39.5866L96.5006 43.6915H94.6484V36.3906Z" fill="#F0EDE8"/>
<path d="M102.791 36.3906H104.777V39.352L107.244 36.3906H109.595L106.879 39.5279L109.681 43.6915H107.301L105.497 40.9842L104.768 41.8052V43.6915H102.781V36.3906H102.791Z" fill="#F0EDE8"/>
<path d="M109.711 40.0343C109.711 37.9428 111.371 36.2422 113.578 36.2422C115.786 36.2422 117.427 37.9232 117.427 40.0343C117.427 42.1454 115.766 43.8265 113.559 43.8265C111.352 43.8265 109.711 42.1454 109.711 40.0343ZM115.402 40.0343C115.402 38.9788 114.653 38.0601 113.559 38.0601C112.465 38.0601 111.745 38.9592 111.745 40.0343C111.745 41.1094 112.494 42.0086 113.578 42.0086C114.672 42.0086 115.402 41.1094 115.402 40.0343Z" fill="#F0EDE8"/>
<path d="M126.299 36.3906H128.285V38.6874H129.37C131.087 38.6874 132.345 39.5182 132.345 41.1699C132.345 42.8216 131.222 43.6915 129.466 43.6915H126.289V36.3906H126.299ZM129.322 41.9909C129.974 41.9909 130.368 41.6879 130.368 41.1113C130.368 40.603 129.974 40.2707 129.331 40.2707H128.285V41.9909H129.322Z" fill="#F0EDE8"/>
<path d="M119.178 36.3906V39.5964C119.178 40.3489 119.101 41.4436 118.612 41.8345C118.382 42.0202 117.998 42.157 117.758 42.157V43.8772H117.95C118.641 43.8772 119.408 43.5938 119.706 43.4081C120.906 42.636 121.049 41.1601 121.049 39.4986V38.1694H122.767V43.6915H124.754V36.3906H119.188H119.178Z" fill="#F0EDE8"/>
</g>
<defs>
<clipPath id="clip0_1641_914">
<rect width="106.062" height="18.2473" fill="white" transform="translate(26.2812 30.9141)"/>
</clipPath>
</defs>
</svg>
