<svg width="158" height="81" viewBox="0 0 158 81" fill="none" xmlns="http://www.w3.org/2000/svg">
<g clip-path="url(#clip0_1641_859)">
<path d="M71.6562 52.1971H74.3902V52.8014H72.2945V53.9045H74.2473V54.5088H72.2945V55.9381H71.6562V52.1875V52.1971Z" fill="#F0EDE8"/>
<path d="M76.8378 52.1562C77.9333 52.1562 78.7525 52.9428 78.7525 54.0843C78.7525 55.2258 77.9047 56.0124 76.8378 56.0124C75.771 56.0124 74.9232 55.2258 74.9232 54.0843C74.885 52.9812 75.7043 52.1562 76.8378 52.1562ZM76.8378 55.408C77.5809 55.408 78.0762 54.8709 78.0762 54.0843C78.0762 53.2977 77.5047 52.7606 76.8378 52.7606C76.1329 52.7606 75.5614 53.2977 75.5614 54.0843C75.5614 54.8709 76.1329 55.408 76.8378 55.408Z" fill="#F0EDE8"/>
<path d="M79.5312 55.9381V52.1875H81.1316C82.1985 52.1875 82.5509 52.7247 82.5509 53.3674C82.5509 53.9429 82.1985 54.3362 81.7317 54.4705L82.7986 55.9669H82.0175L81.0554 54.6144H80.2076V55.9381H79.5312ZM80.1695 52.8302V54.01H81.0554C81.5126 54.01 81.8365 53.799 81.8365 53.4345C81.8365 53.07 81.6269 52.859 81.0173 52.859H80.1695V52.8206V52.8302Z" fill="#F0EDE8"/>
<path d="M84.6016 52.1953H87.726V52.7996H86.4877V55.9459H85.8495V52.7996H84.6111V52.1953H84.6016Z" fill="#F0EDE8"/>
<path d="M90.9504 54.3728H88.9976V55.9459H88.3594V52.1953H88.9976V53.7301H90.9504V52.1953H91.5886V55.9459H90.9504V54.3728Z" fill="#F0EDE8"/>
<path d="M92.6162 52.1953H95.3787V52.7996H93.2545V53.7685H95.1692V54.344H93.2545V55.3416H95.4168V55.9459H92.5781V52.1953H92.6162Z" fill="#F0EDE8"/>
<path d="M97.8281 52.1971H100.562V52.8014H98.4664V53.9045H100.419V54.5088H98.4664V55.9381H97.8281V52.1875V52.1971Z" fill="#F0EDE8"/>
<path d="M104.495 54.3728C104.495 55.5526 103.714 56.013 102.933 56.013C102.047 56.013 101.266 55.4375 101.266 54.3344V52.1953H101.904V54.2672C101.904 55.0154 102.333 55.4087 102.895 55.4087C103.495 55.4087 103.819 54.9771 103.819 54.3056V52.1953H104.457V54.3728H104.495Z" fill="#F0EDE8"/>
<path d="M105.07 52.1953H108.195V52.7996H106.956V55.9459H106.318V52.7996H105.08V52.1953H105.07Z" fill="#F0EDE8"/>
<path d="M111.987 54.3728C111.987 55.5526 111.206 56.013 110.425 56.013C109.539 56.013 108.758 55.4375 108.758 54.3344V52.1953H109.396V54.2672C109.396 55.0154 109.825 55.4087 110.387 55.4087C110.987 55.4087 111.311 54.9771 111.311 54.3056V52.1953H111.949V54.3728H111.987Z" fill="#F0EDE8"/>
<path d="M112.938 55.9381V52.1875H114.538C115.605 52.1875 115.957 52.7247 115.957 53.3674C115.957 53.9429 115.605 54.3362 115.138 54.4705L116.205 55.9669H115.424L114.462 54.6144H113.614V55.9381H112.938ZM113.576 52.8302V54.01H114.462C114.919 54.01 115.243 53.799 115.243 53.4345C115.243 53.07 115.033 52.859 114.424 52.859H113.576V52.8206V52.8302Z" fill="#F0EDE8"/>
<path d="M116.843 52.1953H119.605V52.7996H117.481V53.7685H119.396V54.344H117.481V55.3416H119.643V55.9459H116.805V52.1953H116.843Z" fill="#F0EDE8"/>
<path d="M77.1214 39.549H83.0465V40.23C83.0465 43.9423 80.3888 45.8703 77.512 45.8703C74.0731 45.8703 71.625 43.3667 71.625 39.9039C71.625 36.4411 74.0731 33.9375 77.512 33.9375C79.6743 33.9375 81.6271 35.079 82.5797 37.1509L81.2366 37.5826C80.4936 36.1533 79.0742 35.3284 77.512 35.3284C74.9972 35.3284 73.1872 37.1893 73.1872 39.9039C73.1872 42.6185 74.9972 44.4794 77.512 44.4794C79.6077 44.4794 81.4176 43.2612 81.6271 41.0166H77.0833V39.549H77.1214Z" fill="#F0EDE8"/>
<path d="M84.8819 37.0579H86.2631V38.0555C86.5108 37.3457 87.2252 36.9141 88.2159 36.9141C88.5017 36.9141 88.8922 36.9524 88.997 36.9812V38.3337C88.7875 38.2666 88.5017 38.2282 88.2159 38.2282C86.9394 38.2282 86.225 38.938 86.225 40.1563V45.7294H84.8438V37.0579H84.8819Z" fill="#F0EDE8"/>
<path d="M94.3563 36.9141C97.014 36.9141 98.9287 38.8037 98.9287 41.3745C98.9287 43.9452 97.0521 45.8733 94.3563 45.8733C91.6605 45.8733 89.8125 43.9836 89.8125 41.3745C89.8125 38.7654 91.6605 36.9141 94.3563 36.9141ZM94.3563 44.5591C96.2043 44.5591 97.4808 43.2738 97.4808 41.3841C97.4808 39.4944 96.1377 38.2378 94.3563 38.2378C92.575 38.2378 91.27 39.4848 91.27 41.3841C91.27 43.2833 92.5083 44.5591 94.3563 44.5591Z" fill="#F0EDE8"/>
<path d="M107.016 44.337C106.559 45.2675 105.492 45.8718 104.215 45.8718C101.872 45.8718 100.672 44.6919 100.672 42.0157V37.0469H102.053V41.7951C102.053 43.2627 102.548 44.5097 104.463 44.5097C105.949 44.5097 106.978 43.5409 106.978 41.9389V37.0469H108.359V45.6895H106.978V44.337H107.016Z" fill="#F0EDE8"/>
<path d="M112.264 44.4224V49.065H110.883V37.0651H112.264V38.5998C112.836 37.6022 113.931 36.8828 115.531 36.8828C117.875 36.8828 119.685 38.5615 119.685 41.2761C119.685 43.9907 117.951 45.8132 115.427 45.8132C113.864 45.8804 112.874 45.3144 112.274 44.4224H112.264ZM118.227 41.3528C118.227 39.4248 116.989 38.2065 115.246 38.2065C113.502 38.2065 112.264 39.348 112.264 41.2377V41.5639C112.264 43.5686 113.607 44.5279 115.274 44.5279C117.046 44.5662 118.218 43.3097 118.218 41.3528H118.227Z" fill="#F0EDE8"/>
<path d="M57.8863 45.6997L55.4763 41.6997L53.1329 45.6997H50.3323L53.9521 39.6662L50.2656 34.0547H53.2091L55.5525 37.8053L57.791 34.0547H60.6297L57.0099 39.8388L60.7345 45.6997H57.8958H57.8863Z" fill="#F0EDE8"/>
<path d="M69.8438 41.7701C69.8438 44.3408 67.9291 45.9139 65.4143 45.9139C63.2138 45.9139 61.3372 44.6957 61.1562 42.0195H63.5663C63.7473 43.1993 64.6618 43.6981 65.662 43.6981C66.9003 43.6981 67.4719 42.8444 67.4719 41.7701C67.4719 40.6286 66.6241 39.9092 65.4524 39.9092C64.4903 39.9092 63.8235 40.3696 63.5377 40.878H61.2325L62.0136 34.125H69.5295L69.2818 36.3792H63.9283L63.7187 38.6334C63.7187 38.6334 64.2903 37.9523 65.9859 37.9523C68.0434 37.8852 69.8534 39.3048 69.8534 41.7701H69.8438Z" fill="#F0EDE8"/>
<path d="M61.4421 32.6231C60.1656 27.6255 56.1171 24.0859 47.7153 24.0859H37.5703L38.9516 33.448C39.9804 41.9084 43.2096 44.6231 48.887 45.6302C48.9251 45.6302 49.0966 45.6686 49.0966 45.448C49.0966 45.3808 49.0585 45.3041 48.9918 45.2657C45.1624 43.6255 44.6956 38.3017 43.886 32.9396L43.2477 28.6519H49.0299C54.3834 28.6519 58.4986 28.5847 61.0896 32.719C61.1277 32.7862 61.1944 32.8245 61.2706 32.8245C61.3754 32.8245 61.4516 32.7574 61.4516 32.6423V32.6039L61.4421 32.6231Z" fill="#F0EDE8"/>
</g>
<defs>
<clipPath id="clip0_1641_859">
<rect width="82.1128" height="31.9328" fill="white" transform="translate(37.5703 24.0781)"/>
</clipPath>
</defs>
</svg>
