<svg width="158" height="81" viewBox="0 0 158 81" fill="none" xmlns="http://www.w3.org/2000/svg">
<g clip-path="url(#clip0_1641_791)">
<path d="M132.29 32.0714C132.796 34.9026 130.934 37.916 127.457 40.5744C127.429 40.6032 127.457 40.6512 127.495 40.632C130.275 38.8086 133.216 36.7644 135.203 34.0484C135.919 33.0791 136.521 31.9083 136.626 30.6894C136.826 28.4053 135.308 26.4379 133.407 25.363C132.146 24.6528 130.752 24.2018 129.339 23.8851C126.884 23.3188 124.353 23.1461 121.842 23.1749C120.562 23.1941 119.282 23.2613 118.012 23.386C116.78 23.5012 115.557 23.6547 114.345 23.8755C113.141 24.0866 111.938 24.3169 110.744 24.6145C110.61 24.6433 110.486 24.6816 110.352 24.7104C110.314 24.72 110.324 24.7776 110.362 24.7776C121.899 23.6835 131.306 26.649 132.29 32.0906" fill="#F0EDE8"/>
<path d="M121.974 21.7989C121.974 21.7989 121.927 21.7413 121.974 21.7317C122.863 21.5494 123.751 21.3958 124.648 21.2518C126.071 21.0215 127.504 20.8296 128.937 20.6952C131.401 20.4553 133.979 20.3113 136.453 20.6664C137.007 20.7432 137.561 20.8584 138.105 21.0119C139.452 21.3958 140.836 22.1252 141.209 23.5839C141.457 24.5341 141.304 25.5513 141.008 26.4727C140.435 28.2673 139.318 29.8604 138.134 31.3C138.057 31.3864 137.99 31.4824 137.914 31.5687C137.895 31.5975 137.847 31.5687 137.857 31.5399C138.344 30.2443 138.563 28.7664 138.306 27.394C137.933 25.369 136.329 23.8814 134.514 23.0849C132.317 22.1156 129.911 21.8757 127.533 21.7797C125.68 21.7029 123.827 21.7413 121.974 21.8277" fill="#F0EDE8"/>
<path d="M94.8153 40.6761L97.3271 44.0063H88.2542L85.3795 47.8163H81.2155L93.9653 30.9062L106.715 47.8163H102.551L93.9653 36.4246L90.7564 40.6761H94.7962H94.8153ZM111.863 37.0964H115.177V47.8163H111.863V37.0964ZM103.592 31.866H123.447V35.1962H103.592V31.866ZM80.1459 42.9986C80.1459 45.657 77.997 47.8163 75.3516 47.8163H61.4844V43.4017H64.7984V44.4862H75.342C76.1634 44.4862 76.8223 43.824 76.8223 42.9986C76.8223 42.1733 76.1634 41.5111 75.342 41.5111H61.4844V38.1809H72.6202C73.4415 38.1809 74.1005 37.5187 74.1005 36.6933C74.1005 35.868 73.4415 35.2058 72.6202 35.2058H64.7984V36.2902H61.4844V31.8756H72.6202C75.2656 31.8756 77.4145 34.0349 77.4145 36.6933C77.4145 37.3363 77.2903 37.9505 77.0611 38.5072C78.8566 39.2077 80.1363 40.9544 80.1363 43.0082" fill="#F0EDE8"/>
</g>
<defs>
<clipPath id="clip0_1641_791">
<rect width="79.8319" height="27.3709" fill="white" transform="translate(61.4844 20.4453)"/>
</clipPath>
</defs>
</svg>
