<svg width="158" height="81" viewBox="0 0 158 81" fill="none" xmlns="http://www.w3.org/2000/svg">
<g clip-path="url(#clip0_1641_884)">
<path d="M85.4004 31.1562H78.0533V31.8417C78.3495 31.8613 78.6361 31.9103 78.9323 31.969C79.1616 32.0082 79.3718 32.1061 79.5533 32.253C79.9928 32.6349 79.9832 33.3498 79.9832 34.6522V43.3774C79.9832 45.1498 80.1361 47.6665 77.6807 47.6371C76.6298 47.6273 75.5502 46.8537 75.2158 45.4534H74.375C74.7285 47.8036 75.9514 49.3998 78.9132 49.3998H78.9227C81.4355 49.3998 83.6807 48.2149 83.6807 44.1901V34.662C83.6807 33.3596 83.6807 32.6741 84.1106 32.2922C84.3972 32.0474 84.6265 31.9299 85.3909 31.8417V31.1562H85.4004Z" fill="#F0EDE8"/>
<path d="M93.8254 31.1562H86.4688V31.8417C87.2331 31.9201 87.4719 32.0376 87.749 32.2824C88.1025 32.586 88.1598 33.0952 88.1789 33.9471V46.1291C88.1694 46.9908 88.1025 47.4902 87.749 47.7938C87.4719 48.0386 87.2331 48.1561 86.4688 48.2345V48.9297H97.5706L98.7457 45.4436H97.8859C97.0356 47.3531 95.7171 47.5784 94.5037 47.5784C93.5197 47.5784 92.8604 47.5196 92.4018 47.216C92.0292 46.9712 91.8859 46.3249 91.8764 45.2282V34.662C91.8764 33.3596 91.8764 32.6447 92.3063 32.2628C92.5834 32.018 93.0515 31.9299 93.8158 31.8515V31.1562H93.8254Z" fill="#F0EDE8"/>
<path d="M106.074 31.1562H98.7266V31.8417C99.4909 31.9201 99.7297 32.0376 100.007 32.2824C100.36 32.586 100.418 33.0952 100.437 33.9471V46.1291C100.427 46.9908 100.36 47.4902 100.007 47.7938C99.7297 48.0386 99.4909 48.1561 98.7266 48.2345V48.9297H109.828L111.004 45.4436H110.144C109.293 47.3531 107.975 47.5784 106.762 47.5784C105.777 47.5784 105.118 47.5196 104.66 47.216C104.287 46.9712 104.144 46.3249 104.134 45.2282V34.662C104.134 33.3596 104.134 32.6447 104.564 32.2628C104.841 32.018 105.309 31.9299 106.074 31.8515V31.1562Z" fill="#F0EDE8"/>
<path d="M56.7895 54.3136C57.1334 54.1471 57.4583 53.961 57.764 53.7358C57.8309 53.6869 57.8978 53.6477 57.9646 53.5987C58.3564 53.2952 58.7194 52.9622 59.0443 52.5999C59.4837 52.12 59.885 51.601 60.229 51.0527C60.506 50.6218 60.764 50.1713 60.9933 49.7013C61.8818 47.8701 62.4837 45.9116 62.7704 43.8943C62.9614 42.6213 63.057 41.3384 63.0474 40.0556C63.0474 38.7728 62.9519 37.4802 62.7704 36.2071C62.4837 34.1899 61.8818 32.2314 60.9933 30.4002C60.8882 30.1945 60.7735 29.9791 60.6589 29.7734C60.1812 30.6744 59.7799 31.6242 59.4646 32.5937C60.0379 34.3857 60.3914 36.2463 60.5156 38.1265C60.5538 38.763 60.5729 39.3995 60.5729 40.036C60.5729 40.6725 60.5538 41.3189 60.5156 41.9456C60.3818 44.2468 59.8755 46.5089 59.0347 48.6437C58.7003 49.4663 58.3086 50.2693 57.85 51.0331C57.7449 51.2093 57.6398 51.3954 57.5252 51.5717C57.2959 51.9242 57.0379 52.2767 56.7704 52.6097C56.4647 53.0014 56.1398 53.3735 55.7959 53.7162C55.4233 54.0883 55.0315 54.4311 54.6112 54.7347C54.5729 54.764 54.5443 54.7836 54.5156 54.813V54.8522C55.2991 54.8228 56.0634 54.6367 56.7799 54.294L56.7895 54.3136Z" fill="#F0EDE8"/>
<path d="M61.3077 54.3082C61.6517 54.1418 61.9765 53.9557 62.2918 53.7305C62.3587 53.6815 62.4255 53.6423 62.4924 53.5934C63.8013 52.5847 64.7854 51.1746 65.5306 49.6959C66.4191 47.8647 67.0211 45.9062 67.3077 43.889C67.4988 42.6159 67.5943 41.3331 67.5847 40.0503C67.5847 38.7674 67.4892 37.4748 67.3077 36.2018C67.0211 34.1845 66.4191 32.226 65.5306 30.3948C64.8523 29.0239 63.9542 27.7214 62.7886 26.7422C62.416 27.1535 62.072 27.5843 61.7472 28.0446C61.8618 28.2013 61.9669 28.358 62.072 28.5146C63.9351 31.3545 64.8332 34.7525 65.0529 38.1309C65.1007 38.7674 65.1198 39.404 65.1198 40.0405C65.1198 40.677 65.1007 41.3233 65.0529 41.95C64.8236 45.3382 63.9351 48.7363 62.072 51.5663C61.8427 51.9188 61.5848 52.2714 61.3173 52.6043C61.0115 52.996 60.6867 53.3681 60.3427 53.7109C59.9701 54.083 59.5784 54.4257 59.158 54.7293L59.0625 54.8076V54.8468C59.8459 54.8174 60.6103 54.6314 61.3173 54.2886L61.3077 54.3082Z" fill="#F0EDE8"/>
<path d="M67.0002 53.5956C68.3091 52.587 69.2932 51.1768 70.0384 49.6982C70.927 47.8669 71.5289 45.9084 71.8155 43.8912C72.0066 42.6181 72.1021 41.3353 72.0926 40.0525C72.0926 38.7697 71.997 37.477 71.8155 36.204C71.5289 34.1867 70.927 32.2282 70.0384 30.397C69.3028 28.9086 68.3187 27.5082 67.0002 26.4996C66.0257 25.7554 64.7932 25.2657 63.5703 25.2266V25.2657C64.7646 26.1177 65.7773 27.2928 66.5799 28.5169C68.4429 31.3567 69.341 34.7547 69.5703 38.1331C69.6085 38.7697 69.6372 39.4062 69.6372 40.0427C69.6372 40.6792 69.618 41.3255 69.5703 41.9522C69.341 45.3405 68.4525 48.7385 66.5799 51.5685C65.7678 52.7926 64.7646 53.9579 63.5703 54.8197V54.8588C64.8028 54.8295 66.0257 54.33 67.0002 53.5858V53.5956Z" fill="#F0EDE8"/>
<path d="M61.3055 25.7828C60.9615 25.9492 60.6367 26.1353 60.3309 26.3605C60.2641 26.4095 60.1972 26.4487 60.1303 26.4976C59.7386 26.8012 59.3755 27.1341 59.0507 27.4965C58.6112 27.9763 58.2195 28.4953 57.866 29.0437C57.5889 29.4843 57.331 29.9348 57.1017 30.3951C56.2131 32.2263 55.6112 34.1848 55.3246 36.202C55.1335 37.4751 55.038 38.7579 55.0475 40.0505C55.0475 41.3333 55.1431 42.626 55.3246 43.8892C55.6112 45.9065 56.2131 47.8748 57.1017 49.6962C57.2067 49.9018 57.3214 50.1173 57.436 50.3229C57.9138 49.422 58.315 48.4721 58.6303 47.4929C58.0475 45.7008 57.7036 43.8402 57.5794 41.9601C57.5411 41.3235 57.522 40.687 57.522 40.0505C57.522 39.414 57.5411 38.7677 57.5794 38.141C57.7131 35.8397 58.2195 33.5776 59.0602 31.4429C59.3946 30.6105 59.7864 29.8173 60.2449 29.0535C60.35 28.8772 60.4551 28.6911 60.5698 28.5149C60.7991 28.1623 61.057 27.8098 61.3246 27.4769C61.6303 27.0852 61.9551 26.7131 62.2991 26.3703C62.6717 25.9982 63.0634 25.6555 63.4838 25.3519C63.522 25.3225 63.5507 25.3029 63.5793 25.2735V25.2344C62.7959 25.2638 62.0316 25.4498 61.315 25.7926L61.3055 25.7828Z" fill="#F0EDE8"/>
<path d="M56.7855 25.7808C56.4416 25.9473 56.1167 26.1333 55.8014 26.3585C55.7345 26.4075 55.6677 26.4467 55.6008 26.4956C54.2919 27.5043 53.3078 28.9144 52.5626 30.3931C51.6741 32.2243 51.0722 34.1828 50.7855 36.2001C50.5945 37.4731 50.4989 38.7559 50.5085 40.0485C50.5085 41.3314 50.604 42.624 50.7855 43.8872C51.0722 45.9045 51.6741 47.863 52.5626 49.6942C53.2409 51.0652 54.139 52.3676 55.3046 53.3468C55.6772 52.9355 56.0212 52.5047 56.346 52.0542C56.2314 51.8975 56.1263 51.7408 56.0212 51.5842C54.1581 48.7443 53.26 45.3463 53.0403 41.9679C53.0021 41.3314 52.9734 40.6948 52.9734 40.0583C52.9734 39.4218 52.9925 38.7755 53.0403 38.1488C53.2696 34.7606 54.1581 31.3625 56.0212 28.5325C56.2505 28.18 56.5084 27.8274 56.7759 27.4945C57.0817 27.1028 57.4065 26.7307 57.7505 26.3879C58.1231 26.0158 58.5148 25.6731 58.9352 25.3597C58.9734 25.3303 59.002 25.3107 59.0307 25.2814V25.2422C58.2473 25.2716 57.4829 25.4576 56.7759 25.8004L56.7855 25.7808Z" fill="#F0EDE8"/>
<path d="M51.0923 26.4996C49.7834 27.5082 48.7993 28.9184 48.0637 30.397C47.1752 32.2184 46.5732 34.177 46.2771 36.204C46.086 37.477 46 38.7599 46 40.0525C46 41.3353 46.0955 42.6279 46.2771 43.8912C46.5637 45.9084 47.1656 47.8767 48.0541 49.6982C48.7898 51.1866 49.7739 52.587 51.0923 53.5956C52.0668 54.3496 53.2993 54.8392 54.5222 54.8686V54.8295C53.3184 53.9677 52.3057 52.7926 51.5127 51.5685C49.6497 48.7287 48.7516 45.3307 48.5223 41.9522C48.4841 41.3157 48.4554 40.6792 48.4554 40.0427C48.4554 39.4062 48.4745 38.7599 48.5223 38.1331C48.742 34.7449 49.6401 31.3469 51.5127 28.5169C52.3152 27.2928 53.328 26.1177 54.5318 25.2657V25.2266C53.2993 25.2559 52.0764 25.7554 51.0923 26.4996Z" fill="#F0EDE8"/>
<path d="M59.8399 53.3423C60.2125 52.931 60.5564 52.5001 60.8813 52.0399C60.7666 51.8832 60.6615 51.7265 60.5564 51.5698C60.4418 51.3936 60.3462 51.2173 60.2316 51.0312C59.8781 51.5796 59.4864 52.0986 59.0469 52.5785C59.2953 52.8527 59.5628 53.0975 59.8399 53.3423Z" fill="#F0EDE8"/>
<path d="M62.287 52.3438C61.9813 52.569 61.6469 52.755 61.3125 52.9215C62.0195 53.2643 62.7934 53.4503 63.5673 53.4797V53.4405C63.1087 53.1076 62.6787 52.7452 62.287 52.3438Z" fill="#F0EDE8"/>
<path d="M58.6217 53.4503C58.7459 53.4405 58.8701 53.4111 58.9848 53.3916C58.8606 53.3034 58.7364 53.2055 58.6217 53.1174C58.3255 52.8725 58.0389 52.6179 57.7714 52.3438C57.4657 52.569 57.1313 52.755 56.7969 52.9215C57.265 53.1467 57.7618 53.3034 58.2682 53.3916C58.3924 53.4111 58.5071 53.4307 58.6313 53.4503M59.0612 53.4797V53.4405C59.0612 53.4405 59.023 53.4111 59.0039 53.3916C58.8892 53.4111 58.765 53.4307 58.6408 53.4503C58.7841 53.4699 58.9274 53.4797 59.0707 53.4797H59.0612Z" fill="#F0EDE8"/>
<path d="M58.2601 26.7422C57.8875 27.1535 57.5436 27.5843 57.2188 28.0446C57.3334 28.2013 57.4385 28.358 57.5436 28.5146C57.6582 28.6909 57.7538 28.8672 57.8684 29.0532C58.2219 28.5048 58.6136 27.9858 59.0531 27.506C58.8047 27.2318 58.5372 26.987 58.2601 26.7422Z" fill="#F0EDE8"/>
<path d="M55.8132 26.3625C56.119 26.1373 56.4534 25.9512 56.7878 25.7847C56.0808 25.442 55.3069 25.2559 54.5234 25.2266V25.2657C54.982 25.5987 55.412 25.961 55.8037 26.3625" fill="#F0EDE8"/>
<path d="M61.3034 25.7847C60.8352 25.5595 60.3384 25.4028 59.8321 25.3147C59.7078 25.2951 59.5932 25.2755 59.469 25.2559C59.3257 25.2364 59.1824 25.2266 59.0391 25.2266V25.2657C59.0391 25.2657 59.0773 25.2951 59.0964 25.3147C59.2206 25.4028 59.3448 25.5008 59.4594 25.5889C59.7556 25.8337 60.0422 26.0883 60.3098 26.3625C60.6155 26.1373 60.9499 25.9512 61.2843 25.7847" fill="#F0EDE8"/>
</g>
<defs>
<clipPath id="clip0_1641_884">
<rect width="65.006" height="29.6519" fill="white" transform="translate(46 25.2266)"/>
</clipPath>
</defs>
</svg>
