<svg width="158" height="81" viewBox="0 0 158 81" fill="none" xmlns="http://www.w3.org/2000/svg">
<g clip-path="url(#clip0_1641_908)">
<path d="M45.83 33.2975C43.1086 33.2975 42.1442 35.6437 42.0773 35.8171C41.4089 34.2462 39.9289 33.2567 38.3247 33.2975C37.2075 33.3179 36.1476 33.8076 35.3646 34.6644C34.5816 35.5315 34.1328 36.6842 34.1328 37.8879C34.1328 42.8353 38.4966 46.834 42.0773 46.834C45.6581 46.834 50.0218 42.8251 50.0218 37.8879C50.0218 36.6842 49.573 35.5315 48.79 34.6644C48.0166 33.8076 46.9471 33.3179 45.8395 33.2975H45.83ZM46.5461 38.0715C46.5461 39.3568 46.0782 40.6013 45.2379 41.5092C44.4072 42.4171 43.2614 42.9271 42.0773 42.9373C40.8837 42.9373 39.7474 42.4171 38.9167 41.5092C38.0764 40.5911 37.6085 39.3568 37.6085 38.0715V37.9287H39.1936V38.0715C39.1936 38.8978 39.4992 39.7036 40.0434 40.2953C40.5782 40.8869 41.323 41.2134 42.0869 41.2134C42.8603 41.2134 43.5956 40.8767 44.1303 40.2953C44.6746 39.7036 44.9801 38.8978 44.9801 38.0715V37.9287H46.5652V38.0715H46.5461ZM116.719 33.3077C113.043 33.3077 110.35 36.1946 110.35 40.0913C110.35 43.988 113.043 46.8749 116.719 46.8749C120.396 46.8749 123.088 43.988 123.088 40.0913C123.088 36.1946 120.405 33.3179 116.719 33.3179V33.3077ZM116.719 44.1206C114.705 44.1206 113.33 42.4477 113.33 40.0913C113.33 37.7349 114.705 36.0619 116.719 36.0619C118.734 36.0619 120.109 37.7349 120.109 40.0913C120.109 42.4477 118.734 44.1206 116.719 44.1206ZM102.578 33.3077C98.9016 33.3077 96.2088 36.1946 96.2088 40.0913C96.2088 43.988 98.9016 46.8749 102.578 46.8749C106.254 46.8749 108.947 43.988 108.947 40.0913C108.947 36.1333 106.254 33.3179 102.578 33.3179V33.3077ZM102.578 44.1206C100.563 44.1206 99.188 42.4477 99.188 40.0913C99.188 37.7349 100.563 36.0619 102.578 36.0619C104.593 36.0619 105.968 37.7349 105.968 40.0913C105.968 42.4477 104.593 44.1206 102.578 44.1206ZM61.2702 33.3077C59.284 33.3077 57.8136 34.2462 56.9542 35.8477V29.7578H54.2614V39.7343C54.2614 43.9778 56.5627 46.8647 60.5349 46.8647C63.8006 46.8647 66.8371 44.3246 66.8371 40.0199C66.8371 36.368 64.8223 33.3077 61.2702 33.3077ZM60.5063 43.9778C58.3292 43.9778 57.0879 42.2743 57.0879 40.0811C57.0879 37.8879 58.3005 36.0517 60.4776 36.0517C62.6547 36.0517 63.8674 37.8573 63.8674 40.0811C63.8674 42.2743 62.6834 43.9778 60.5063 43.9778ZM74.5524 33.3077C71.2868 33.3077 68.2503 35.8477 68.2503 40.1525C68.2503 43.8044 70.265 46.8544 73.8172 46.8544C75.8033 46.8544 77.2738 45.916 78.1332 44.3144V46.7218H80.8259V40.4279C80.8259 36.1844 78.5247 33.2975 74.5524 33.2975V33.3077ZM74.5524 44.1206C72.4135 44.1206 71.2295 42.3763 71.2295 40.1525C71.2295 37.9287 72.4135 36.1844 74.5906 36.1844C76.7677 36.1844 78.009 37.8879 78.009 40.0811C78.009 42.3049 76.72 44.1104 74.5524 44.1104V44.1206ZM92.1124 29.7578V35.8375C91.2531 34.236 89.7826 33.2975 87.7964 33.2975C84.2443 33.2975 82.2295 36.3578 82.2295 39.9995C82.2295 44.3858 85.0751 46.8442 88.398 46.8442C92.3607 46.8442 94.7956 43.9574 94.7956 39.7138V29.7578H92.1124ZM88.5603 43.9778C86.3832 43.9778 85.1992 42.2743 85.1992 40.0811C85.1992 37.8879 86.5074 36.0517 88.589 36.0517C90.6706 36.0517 91.9788 37.8267 91.9788 40.0811C91.9788 42.2743 90.7279 43.9778 88.5508 43.9778H88.5603Z" fill="#F0EDE8"/>
</g>
<defs>
<clipPath id="clip0_1641_908">
<rect width="88.9556" height="17.1068" fill="white" transform="translate(34.1328 29.7656)"/>
</clipPath>
</defs>
</svg>
