<svg width="158" height="81" viewBox="0 0 158 81" fill="none" xmlns="http://www.w3.org/2000/svg">
<g clip-path="url(#clip0_1641_755)">
<path fill-rule="evenodd" clip-rule="evenodd" d="M42.8376 46.6855C50.1879 46.6855 56.1517 43.6263 56.1517 39.8427C56.1517 36.0592 50.1879 33 42.8376 33C35.4873 33 29.5234 36.0592 29.5234 39.8427C29.5234 43.6263 35.4873 46.6855 42.8376 46.6855ZM45.3446 43.3308C45.1262 43.8455 44.7369 44.951 43.8632 45.3894C43.5973 45.5228 43.2744 45.5895 42.9705 45.5895C42.904 45.5895 42.8566 45.5895 42.8376 45.5895C40.378 45.5895 38.0988 45.2464 36.1805 44.6651C36.1615 44.6651 36.1235 44.646 36.114 44.6365C35.9336 44.5793 35.8481 44.4935 35.8481 44.3982C35.8481 44.3124 35.8956 44.2457 35.9621 44.179C35.9906 44.1504 36.0286 44.1123 36.0855 44.0742C36.5224 43.7025 37.8614 42.7399 40.3685 41.7774C41.2516 41.4438 42.3532 41.015 43.5023 40.7767C44.1766 40.6337 46.6837 40.2525 45.3636 43.3403L45.3446 43.3308ZM52.0682 36.4309C52.1157 36.3451 52.1821 36.2784 52.2866 36.2689C52.3531 36.2689 52.4385 36.2784 52.562 36.3642C54.1194 37.3267 55.0501 38.5371 55.0501 39.8427C55.0501 42.2062 52.0302 44.2267 47.7093 45.113C47.4339 45.1702 47.2534 45.1702 47.187 45.0939C47.149 45.0463 47.13 44.9796 47.187 44.8843C47.2155 44.8366 47.2439 44.7889 47.3009 44.7222C49.6561 41.9394 51.4509 37.8318 51.9542 36.6406C51.9922 36.5548 52.0302 36.4785 52.0587 36.4214L52.0682 36.4309ZM40.3685 36.3451C40.5869 35.8305 40.9762 34.725 41.8499 34.2866C42.1158 34.1532 42.4482 34.0865 42.7426 34.0769C42.8091 34.0769 42.8566 34.0769 42.8755 34.0769C45.3351 34.0769 47.6143 34.42 49.5326 35.0014C49.5516 35.0014 49.5896 35.0204 49.6086 35.0299C49.789 35.0871 49.8745 35.1729 49.8745 35.2682C49.8745 35.354 49.827 35.4207 49.77 35.4874C49.7415 35.516 49.7035 35.5541 49.6466 35.5922C49.2002 35.9639 47.8707 36.9265 45.3636 37.889C44.4805 38.2226 43.3789 38.6515 42.2298 38.8897C41.5555 39.0327 39.0484 39.4139 40.3685 36.3261V36.3451ZM37.9563 34.5725C38.2317 34.5153 38.4122 34.5153 38.4787 34.5916C38.5166 34.6392 38.5261 34.7059 38.4787 34.8012C38.4502 34.8489 38.4217 34.8965 38.3647 34.9632C36.0096 37.7461 34.2147 41.8536 33.7114 43.0449C33.6734 43.1307 33.6354 43.2069 33.6069 43.2641C33.5595 43.3499 33.493 43.4166 33.3885 43.4261C33.322 43.4261 33.2366 43.4166 33.1131 43.3403C31.5462 42.3778 30.625 41.1674 30.625 39.8618C30.625 37.4983 33.6449 35.4779 37.9753 34.5916L37.9563 34.5725Z" fill="#F0EDE8"/>
<path fill-rule="evenodd" clip-rule="evenodd" d="M67.9772 34.9531V38.6795H63.7703V34.9531H61.4531V44.7312H63.7703V40.7952H67.9772V44.7312H70.2944V34.9531H67.9772Z" fill="#F0EDE8"/>
<path fill-rule="evenodd" clip-rule="evenodd" d="M78.7892 34.9531L76.3675 38.8224L73.9459 34.9531H71.2109L75.209 41.3479V44.7312H77.5261V41.3479L81.5242 34.9531H78.7892Z" fill="#F0EDE8"/>
<path fill-rule="evenodd" clip-rule="evenodd" d="M88.9929 34.9531V42.1199C88.9929 42.3867 88.7934 42.6155 88.499 42.6155H84.7859V34.9531H82.4688V44.7312H89.3157C89.9235 44.7312 90.4173 44.5501 90.7687 44.1975C91.1201 43.8353 91.3005 43.3493 91.3005 42.7394V34.9531H88.9834H88.9929Z" fill="#F0EDE8"/>
<path fill-rule="evenodd" clip-rule="evenodd" d="M100.3 34.9531H93.4531V44.7312H95.7703V37.0688H99.4929C99.7873 37.0688 99.9867 37.3071 99.9867 37.5549V44.7217H102.304V36.9545C102.304 36.3445 102.123 35.849 101.772 35.4964C101.411 35.1342 100.927 34.9531 100.319 34.9531H100.3Z" fill="#F0EDE8"/>
<path fill-rule="evenodd" clip-rule="evenodd" d="M111.284 34.9531H104.438V44.7312H111.284C111.892 44.7312 112.386 44.5501 112.737 44.1975C113.098 43.8353 113.279 43.3493 113.279 42.7394V36.9545C113.279 36.3445 113.098 35.849 112.737 35.4964C112.377 35.1342 111.892 34.9531 111.284 34.9531ZM110.962 37.574V42.1008C110.962 42.3677 110.772 42.6059 110.468 42.6059H106.755V37.0688H110.458C110.762 37.0688 110.971 37.2785 110.971 37.574H110.962Z" fill="#F0EDE8"/>
<path fill-rule="evenodd" clip-rule="evenodd" d="M117.322 34.9531C116.715 34.9531 116.221 35.1342 115.869 35.4964C115.518 35.8585 115.328 36.3445 115.328 36.9545V44.7312H117.645V41.7101H121.852V44.7312H124.169V34.9531H117.322ZM121.852 37.0688V39.5848H117.645V37.5644C117.645 37.3262 117.826 37.0688 118.139 37.0688H121.852Z" fill="#F0EDE8"/>
<path fill-rule="evenodd" clip-rule="evenodd" d="M128.625 34.9531H126.422V44.7312H128.739V34.9531H128.625Z" fill="#F0EDE8"/>
</g>
<defs>
<clipPath id="clip0_1641_755">
<rect width="99.2197" height="13.6855" fill="white" transform="translate(29.5234 33)"/>
</clipPath>
</defs>
</svg>
