<!-- <svg width="158" height="81" viewBox="0 0 158 81" fill="none" xmlns="http://www.w3.org/2000/svg">
<g clip-path="url(#clip0_1641_914)">
<path d="M26.2812 48.0648L30.8781 43.3832V37.8514H28.834V36.3951H35.7916L39.0928 41.018V35.0268L43.1138 30.9219H29.8608L26.2812 34.5674V48.0648Z" fill="#F0EDE8"/>
<path d="M40.622 35.6631V43.6873H39.3072L36.006 39.0643V43.6873H34.4801V37.8426H32.4264V44L27.3594 49.1605H40.622L44.2015 45.5149V32.0078L40.622 35.6631Z" fill="#F0EDE8"/>
<path d="M49.9309 38.1596H47.7812V36.3906H54.0671V38.1596H51.9174V43.6817H49.9309V38.1596Z" fill="#F0EDE8"/>
<path d="M55.1094 36.3906H60.877V38.1108H57.0767V39.2152H60.5123V40.8083H57.0767V41.9616H60.925V43.6817H55.1094V36.3906Z" fill="#F0EDE8"/>
<path d="M64.2007 39.9775L61.8495 36.3906H64.1335L65.4003 38.4431L66.6767 36.3906H68.9031L66.5519 39.958L69.0087 43.6915H66.7246L65.3523 41.4924L63.9704 43.6915H61.7344L64.1911 39.9775H64.2007Z" fill="#F0EDE8"/>
<path d="M69.9531 36.3906H71.9396V39.1175H74.4924V36.3906H76.4789V43.6915H74.4924V40.9158H71.9396V43.6915H69.9531V36.3906Z" fill="#F0EDE8"/>
<path d="M77.6641 40.0343C77.6641 37.9428 79.3243 36.2422 81.5315 36.2422C83.7388 36.2422 85.3798 37.9232 85.3798 40.0343C85.3798 42.1454 83.7196 43.8265 81.5123 43.8265C79.2955 43.8265 77.6641 42.1454 77.6641 40.0343ZM83.3549 40.0343C83.3549 38.9788 82.6063 38.0601 81.5123 38.0601C80.4183 38.0601 79.6986 38.9592 79.6986 40.0343C79.6986 41.1094 80.4471 42.0086 81.5315 42.0086C82.6255 42.0086 83.3549 41.1094 83.3549 40.0343Z" fill="#F0EDE8"/>
<path d="M86.5781 36.3906H88.5646V39.1175H91.1173V36.3906H93.1039V43.6915H91.1173V40.9158H88.5646V43.6915H86.5781V36.3906Z" fill="#F0EDE8"/>
<path d="M94.6484 36.3906H96.6158V40.4955L99.3892 36.3906H101.241V43.6915H99.274V39.5866L96.5006 43.6915H94.6484V36.3906Z" fill="#F0EDE8"/>
<path d="M102.791 36.3906H104.777V39.352L107.244 36.3906H109.595L106.879 39.5279L109.681 43.6915H107.301L105.497 40.9842L104.768 41.8052V43.6915H102.781V36.3906H102.791Z" fill="#F0EDE8"/>
<path d="M109.711 40.0343C109.711 37.9428 111.371 36.2422 113.578 36.2422C115.786 36.2422 117.427 37.9232 117.427 40.0343C117.427 42.1454 115.766 43.8265 113.559 43.8265C111.352 43.8265 109.711 42.1454 109.711 40.0343ZM115.402 40.0343C115.402 38.9788 114.653 38.0601 113.559 38.0601C112.465 38.0601 111.745 38.9592 111.745 40.0343C111.745 41.1094 112.494 42.0086 113.578 42.0086C114.672 42.0086 115.402 41.1094 115.402 40.0343Z" fill="#F0EDE8"/>
<path d="M126.299 36.3906H128.285V38.6874H129.37C131.087 38.6874 132.345 39.5182 132.345 41.1699C132.345 42.8216 131.222 43.6915 129.466 43.6915H126.289V36.3906H126.299ZM129.322 41.9909C129.974 41.9909 130.368 41.6879 130.368 41.1113C130.368 40.603 129.974 40.2707 129.331 40.2707H128.285V41.9909H129.322Z" fill="#F0EDE8"/>
<path d="M119.178 36.3906V39.5964C119.178 40.3489 119.101 41.4436 118.612 41.8345C118.382 42.0202 117.998 42.157 117.758 42.157V43.8772H117.95C118.641 43.8772 119.408 43.5938 119.706 43.4081C120.906 42.636 121.049 41.1601 121.049 39.4986V38.1694H122.767V43.6915H124.754V36.3906H119.188H119.178Z" fill="#F0EDE8"/>
</g>
<defs>
<clipPath id="clip0_1641_914">
<rect width="106.062" height="18.2473" fill="white" transform="translate(26.2812 30.9141)"/>
</clipPath>
</defs>
</svg> -->



<svg class="hero-title__svg" xmlns="http://www.w3.org/2000/svg" viewBox="0 0 1500 610">
					<path fill-rule="evenodd" d="M1141.179,193.392 L1141.179,147.793 L1499.573,147.793 L1499.573,193.392 L1141.179,193.392 ZM1104.769,578.191 C1095.436,588.591 1084.303,596.457 1071.370,601.791 C1058.436,607.124 1044.370,609.791 1029.170,609.791 C1013.970,609.791 999.904,607.124 986.971,601.791 C974.038,596.457 962.905,588.591 953.571,578.191 C944.505,568.324 937.638,556.725 932.972,543.392 C928.305,530.058 925.972,515.659 925.972,500.192 C925.972,484.726 928.305,470.326 932.972,456.993 C937.638,443.660 944.505,432.060 953.571,422.193 C962.905,412.060 974.038,404.327 986.971,398.994 C999.904,393.660 1013.970,390.994 1029.170,390.994 C1044.370,390.994 1058.436,393.660 1071.370,398.994 C1084.303,404.327 1095.436,412.060 1104.769,422.193 C1113.836,432.060 1120.702,443.660 1125.369,456.993 C1130.035,470.326 1132.369,484.726 1132.369,500.192 C1132.369,515.659 1130.035,530.058 1125.369,543.392 C1120.702,556.725 1113.836,568.324 1104.769,578.191 ZM1063.770,453.993 C1055.370,442.926 1043.837,437.393 1029.170,437.393 C1014.504,437.393 1002.904,442.993 994.371,454.193 C985.837,465.393 981.571,480.726 981.571,500.192 C981.571,519.925 985.771,535.392 994.171,546.592 C1002.571,557.792 1014.237,563.391 1029.170,563.391 C1043.837,563.391 1055.370,557.792 1063.770,546.592 C1072.169,535.392 1076.369,519.925 1076.369,500.192 C1076.369,480.459 1072.169,465.060 1063.770,453.993 ZM1054.383,0.195 L1110.382,0.195 L1110.382,287.391 L1054.383,287.391 L1054.383,0.195 ZM960.387,0.195 L1016.386,0.195 L1016.386,287.391 L960.387,287.391 L960.387,0.195 ZM806.990,232.191 C816.190,241.258 827.723,245.791 841.590,245.791 C852.790,245.791 862.323,243.125 870.189,237.791 C878.056,232.458 883.589,224.858 886.789,214.992 L933.988,231.791 C926.522,250.458 914.589,265.124 898.189,275.791 C881.789,286.457 862.789,291.790 841.190,291.790 C825.723,291.790 811.457,289.124 798.390,283.790 C785.324,278.458 774.124,270.724 764.791,260.591 C755.724,250.725 748.791,239.125 743.991,225.791 C739.191,212.458 736.791,197.925 736.791,182.192 C736.791,167.259 739.191,153.193 743.991,139.993 C748.791,126.793 755.724,115.260 764.791,105.393 C774.124,94.993 785.191,86.994 797.990,81.394 C810.790,75.794 824.523,72.994 839.190,72.994 C868.523,72.994 891.856,82.661 909.189,101.993 C926.522,121.326 935.188,146.726 935.188,178.192 L935.188,194.592 L790.391,194.592 C792.257,210.592 797.790,223.125 806.990,232.191 ZM879.589,156.593 C879.323,144.860 875.523,135.460 868.189,128.393 C860.856,121.326 851.056,117.793 838.790,117.793 C827.323,117.793 817.523,121.127 809.390,127.793 C801.257,134.460 795.590,144.060 792.390,156.593 L879.589,156.593 ZM626.787,287.391 L591.187,160.192 L555.588,287.391 L507.189,287.391 L443.589,76.994 L500.389,76.994 L535.988,208.592 L570.388,76.994 L613.987,76.994 L648.786,208.592 L683.986,76.994 L738.785,76.994 L675.186,287.391 L626.787,287.391 ZM438.584,225.392 C433.917,238.725 427.050,250.325 417.984,260.191 C408.651,270.591 397.517,278.458 384.584,283.790 C371.651,289.124 357.585,291.790 342.385,291.790 C327.185,291.790 313.119,289.124 300.186,283.790 C287.253,278.458 276.119,270.591 266.786,260.191 C257.720,250.325 250.853,238.725 246.187,225.392 C241.520,212.058 239.187,197.659 239.187,182.192 C239.187,166.726 241.520,152.326 246.187,138.993 C250.853,125.660 257.720,114.060 266.786,104.194 C276.119,94.060 287.253,86.327 300.186,80.994 C313.119,75.661 327.185,72.994 342.385,72.994 C357.585,72.994 371.651,75.661 384.584,80.994 C397.517,86.327 408.651,94.060 417.984,104.194 C427.050,114.060 433.917,125.660 438.584,138.993 C443.250,152.326 445.583,166.726 445.583,182.192 C445.583,197.659 443.250,212.058 438.584,225.392 ZM376.984,135.993 C368.585,124.926 357.051,119.393 342.385,119.393 C327.719,119.393 316.119,124.993 307.586,136.193 C299.052,147.393 294.786,162.726 294.786,182.192 C294.786,201.925 298.986,217.392 307.386,228.591 C315.785,239.791 327.452,245.391 342.385,245.391 C357.051,245.391 368.585,239.791 376.984,228.591 C385.384,217.392 389.584,201.925 389.584,182.192 C389.584,162.459 385.384,147.059 376.984,135.993 ZM132.786,181.792 L73.987,181.792 L73.987,287.391 L15.187,287.391 L15.187,0.195 L132.786,0.195 C166.918,0.195 193.318,8.062 211.984,23.795 C230.651,39.528 239.984,61.927 239.984,90.994 C239.984,119.793 230.584,142.126 211.784,157.993 C192.985,173.859 166.652,181.792 132.786,181.792 ZM168.185,60.594 C159.252,53.661 146.385,50.194 129.586,50.194 L73.987,50.194 L73.987,131.793 L129.586,131.793 C146.385,131.793 159.252,128.260 168.185,121.193 C177.118,114.127 181.585,104.060 181.585,90.994 C181.585,77.660 177.118,67.527 168.185,60.594 ZM78.387,548.392 C93.053,556.525 108.386,560.591 124.386,560.591 C140.119,560.591 152.719,557.258 162.185,550.591 C171.652,543.925 176.385,534.725 176.385,522.992 C176.385,515.792 174.319,509.925 170.185,505.392 C166.052,500.859 159.052,496.992 149.186,493.792 C146.519,492.992 141.586,491.726 134.386,489.992 C127.186,488.259 117.719,486.059 105.986,483.393 C89.720,479.659 77.053,475.993 67.987,472.392 C58.920,468.793 51.054,464.726 44.387,460.193 C35.054,453.526 28.121,445.460 23.588,435.993 C19.054,426.527 16.788,415.527 16.788,402.994 C16.788,389.394 19.654,376.861 25.387,365.394 C31.121,353.928 39.321,344.195 49.987,336.195 C59.587,328.995 70.720,323.461 83.387,319.595 C96.053,315.729 109.453,313.795 123.586,313.795 C146.519,313.795 167.585,318.328 186.785,327.395 C205.985,336.461 221.051,348.861 231.984,364.594 L193.185,402.593 C183.585,389.261 172.919,379.327 161.185,372.794 C149.452,366.261 136.386,362.995 121.986,362.995 C107.853,362.995 96.453,366.128 87.787,372.394 C79.120,378.661 74.787,386.994 74.787,397.394 C74.787,403.527 76.520,408.660 79.987,412.794 C83.453,416.927 89.053,420.460 96.786,423.394 C99.986,424.460 103.920,425.593 108.586,426.793 C113.253,427.993 121.453,429.927 133.186,432.593 C153.719,437.127 168.652,441.060 177.985,444.393 C187.318,447.727 195.318,451.393 201.985,455.393 C213.185,462.326 221.451,470.859 226.784,480.993 C232.118,491.126 234.784,503.126 234.784,516.992 C234.784,531.125 231.784,544.192 225.784,556.191 C219.785,568.191 211.051,578.324 199.585,586.591 C189.452,594.057 177.785,599.791 164.585,603.791 C151.386,607.791 137.319,609.791 122.386,609.791 C97.586,609.791 73.853,604.591 51.187,594.191 C28.521,583.791 11.588,570.058 0.388,552.991 L40.787,513.792 C51.187,528.725 63.720,540.258 78.387,548.392 ZM266.383,334.995 L321.582,334.995 L321.582,394.994 L364.381,394.994 L364.381,441.793 L321.582,441.793 L321.582,538.992 C321.582,546.458 323.382,551.725 326.982,554.791 C330.582,557.858 337.582,559.391 347.982,559.391 C351.182,559.391 353.981,559.325 356.382,559.191 C358.781,559.058 362.381,558.725 367.181,558.191 L367.181,604.591 C361.848,605.657 356.182,606.457 350.182,606.991 C344.182,607.524 337.848,607.791 331.182,607.791 C308.249,607.791 291.716,603.258 281.583,594.191 C271.449,585.124 266.383,570.591 266.383,550.591 L266.383,441.793 L238.383,441.793 L238.383,394.994 L266.383,394.994 L266.383,334.995 ZM445.579,521.792 C445.579,534.325 448.446,543.858 454.179,550.392 C459.912,556.925 468.246,560.192 479.179,560.192 C490.112,560.192 499.312,556.325 506.778,548.591 C514.245,540.858 517.978,530.858 517.978,518.592 L517.978,394.994 L573.977,394.994 L573.977,605.390 L517.978,605.390 L517.978,583.791 C510.778,592.324 502.378,598.791 492.779,603.191 C483.179,607.591 472.646,609.791 461.179,609.791 C439.579,609.791 422.246,602.924 409.180,589.191 C396.113,575.458 389.580,557.124 389.580,534.191 L389.580,394.994 L445.579,394.994 L445.579,521.792 ZM622.379,424.993 C630.646,413.793 640.646,405.327 652.379,399.594 C664.112,393.861 677.045,390.994 691.178,390.994 C703.445,390.994 714.644,393.194 724.778,397.594 C734.911,401.994 743.311,408.327 749.977,416.593 L749.977,318.195 L805.976,318.195 L805.976,605.390 L749.977,605.390 L749.977,583.791 C743.311,592.058 734.911,598.457 724.778,602.991 C714.644,607.524 703.445,609.791 691.178,609.791 C677.045,609.791 664.112,606.857 652.379,600.991 C640.646,595.124 630.646,586.724 622.379,575.791 C614.913,565.925 609.246,554.525 605.379,541.592 C601.513,528.658 599.580,514.859 599.580,500.192 C599.580,485.526 601.513,471.726 605.379,458.793 C609.246,445.860 614.913,434.593 622.379,424.993 ZM668.779,545.391 C677.312,556.325 689.178,561.791 704.378,561.791 C718.511,561.791 729.844,556.791 738.377,546.791 C746.911,536.792 751.177,523.259 751.177,506.192 L751.177,494.593 C751.177,477.526 746.911,463.993 738.377,453.993 C729.844,443.993 718.511,438.993 704.378,438.993 C689.178,438.993 677.312,444.460 668.779,455.393 C660.245,466.326 655.979,481.259 655.979,500.192 C655.979,519.392 660.245,534.459 668.779,545.391 ZM900.775,370.194 L843.576,370.194 L843.576,318.195 L900.775,318.195 L900.775,370.194 ZM900.375,605.390 L844.376,605.390 L844.376,394.994 L900.375,394.994 L900.375,605.390 Z"></path>
				</svg>
