<svg width="158" height="81" viewBox="0 0 158 81" fill="none" xmlns="http://www.w3.org/2000/svg">
<g clip-path="url(#clip0_1641_814)">
<path d="M71.8655 32.8552L70.6363 39.212H68.9784L67.4062 31.4766H68.7402L69.8359 37.4601H69.855L71.0174 31.4766H72.7421L73.9045 37.4601H73.9236L75.0574 31.4766H76.3437L74.743 39.212H73.0565L71.8559 32.8552H71.8655Z" fill="#F0EDE8"/>
<path d="M78.3045 33.4141C79.467 33.4141 80.8009 34.0268 80.8009 36.334C80.8009 38.6413 79.467 39.2827 78.3045 39.2827C77.1421 39.2827 75.7891 38.7083 75.7891 36.334C75.8081 34.0076 77.1707 33.4141 78.3045 33.4141ZM78.3045 38.3349C79.1811 38.3349 79.4003 37.3201 79.4003 36.3532C79.4003 35.3862 79.2002 34.4001 78.3045 34.4001C77.4089 34.4001 77.2088 35.4149 77.2088 36.3532C77.2088 37.2914 77.4279 38.3349 78.3045 38.3349Z" fill="#F0EDE8"/>
<path d="M81.4695 34.4445C81.4695 34.119 81.4505 33.8318 81.4219 33.4967H82.6701C82.6891 33.8509 82.7177 34.1956 82.7177 34.5498H82.7368C82.9083 34.1094 83.3275 33.4297 84.1851 33.4297C84.2518 33.4297 84.3375 33.4488 84.4042 33.4488V34.7413C84.2708 34.7221 84.1374 34.6743 84.0326 34.6743C83.4609 34.6743 82.8511 35.0285 82.8511 36.0816V39.2026H81.4981L81.479 34.4349L81.4695 34.4445Z" fill="#F0EDE8"/>
<path d="M84.9922 30.8984H86.3738V39.2083H84.9922V30.8984Z" fill="#F0EDE8"/>
<path d="M91.9507 30.8984V38.2414C91.9507 38.5669 91.9697 38.902 91.9983 39.2083H90.712C90.6929 38.9211 90.6644 38.6148 90.6644 38.3276H90.6453C90.4262 38.8158 90.0069 39.2945 89.1398 39.2945C87.7392 39.2945 87.1484 37.9542 87.1484 36.3745C87.1484 34.5077 87.8916 33.4259 89.1208 33.4259C89.7592 33.4067 90.3213 33.7514 90.5881 34.3258H90.6072V30.8984H91.9602H91.9507ZM89.5019 38.2605C90.3118 38.2605 90.5786 37.3798 90.5786 36.3267C90.5786 35.2736 90.2737 34.412 89.5305 34.412C88.7873 34.412 88.5014 35.1587 88.5014 36.298C88.5014 37.6191 88.7206 38.251 89.5114 38.251L89.5019 38.2605Z" fill="#F0EDE8"/>
<path d="M96.0156 31.4766H97.4353V34.6167H99.7126V31.4766H101.113V39.212H99.7126V35.7847H97.4353V39.1929H96.0156V31.4766Z" fill="#F0EDE8"/>
<path d="M106.129 38.9285C105.605 39.1678 105.014 39.3018 104.442 39.3018C102.603 39.3018 101.812 37.9807 101.812 36.4489C101.812 34.7544 102.708 33.4141 104.156 33.4141C105.386 33.4141 106.434 34.1129 106.434 36.468V36.7361H103.156C103.156 37.703 103.547 38.2966 104.604 38.2966C105.433 38.2966 105.852 38.0285 106.091 37.8562L106.138 38.938L106.129 38.9285ZM105.1 35.8745C105.1 34.8597 104.776 34.3618 104.137 34.3618C103.413 34.3618 103.127 35.1277 103.127 35.8745H105.1Z" fill="#F0EDE8"/>
<path d="M107.306 33.8275C107.878 33.5594 108.488 33.4062 109.097 33.4062C110.87 33.4062 111.289 34.2679 111.289 35.6943V38.1739C111.289 38.4994 111.308 38.8345 111.356 39.1887H110.107C110.041 38.9206 110.022 38.6813 110.041 38.4228H110.022C109.669 38.8824 109.259 39.2844 108.421 39.2844C107.544 39.2844 106.734 38.6717 106.734 37.6186C106.734 36.0773 107.983 35.6848 109.736 35.6848H110.003V35.4646C110.003 34.8902 109.736 34.3636 108.954 34.3636C108.383 34.3828 107.859 34.5838 107.401 34.938L107.316 33.8371L107.306 33.8275ZM109.993 36.4028H109.86C108.697 36.4028 108.002 36.6421 108.002 37.4846C107.983 37.9441 108.326 38.3462 108.764 38.3654H108.869C109.679 38.3654 109.984 37.7527 109.984 36.7379V36.4124L109.993 36.4028Z" fill="#F0EDE8"/>
<path d="M112.539 30.8984H113.892V39.2083H112.539V30.8984Z" fill="#F0EDE8"/>
<path d="M115.467 32.3275L116.82 31.9062V33.5146H117.954V34.5294H116.82V37.4972C116.82 38.1099 117.039 38.2918 117.43 38.2918C117.601 38.2918 117.801 38.244 117.935 38.1578V39.1247C117.649 39.2588 117.325 39.2971 117.02 39.2971C116.01 39.2971 115.419 38.8375 115.419 37.6313V34.5103H114.523V33.4955H115.419L115.467 32.3275Z" fill="#F0EDE8"/>
<path d="M118.398 30.8984H119.751V34.2396H119.77C120.009 33.8854 120.342 33.4259 121.171 33.4259C122.457 33.4259 122.858 34.3928 122.858 35.5321V39.1988H121.505V35.7906C121.505 34.9098 121.285 34.5364 120.714 34.5364C120.018 34.5364 119.751 35.1491 119.751 35.8767V39.1988H118.398V30.8984Z" fill="#F0EDE8"/>
<path d="M70.5273 41.2734C72.1281 41.2734 73.5859 42.4797 73.5859 45.2561C73.5859 48.0324 72.1185 49.2387 70.5273 49.2387C68.9361 49.2387 67.4688 48.0324 67.4688 45.2561C67.4688 42.4797 68.9361 41.2734 70.5273 41.2734ZM70.5273 48.1569C71.423 48.1569 72.1471 47.391 72.1471 45.2561C72.1471 43.1211 71.423 42.3744 70.5273 42.3744C69.6317 42.3744 68.9075 43.1403 68.9075 45.2561C68.9075 47.3623 69.6317 48.1569 70.5273 48.1569Z" fill="#F0EDE8"/>
<path d="M74.1883 44.3507C74.1883 44.0252 74.1692 43.738 74.1406 43.403H75.3888C75.4079 43.7572 75.4365 44.1018 75.4365 44.456H75.4555C75.627 44.0157 76.0653 43.3359 76.9038 43.3359C76.9705 43.3359 77.0563 43.3551 77.123 43.3551V44.6475C76.9896 44.6284 76.8562 44.5805 76.7323 44.5805C76.1606 44.5805 75.5508 44.9347 75.5508 45.9878V49.1088H74.1978V44.3412L74.1883 44.3507Z" fill="#F0EDE8"/>
<path d="M77.7693 50.0201C78.2743 50.3264 78.865 50.4796 79.4558 50.5083C80.7421 50.5083 80.9422 49.6084 80.9422 48.7085V48.1628H80.9231C80.704 48.6032 80.3133 49.1297 79.4367 49.1297C78.6459 49.1297 77.4453 48.6032 77.4453 46.2959C77.4453 44.7163 78.017 43.3281 79.5034 43.3281C80.3324 43.3281 80.704 43.7877 80.9898 44.2951H81.0375C81.0375 43.9887 81.0565 43.7015 81.0851 43.4143H82.3333C82.3142 43.7206 82.2857 44.0079 82.2857 44.3142V48.517C82.2857 50.3169 81.7425 51.571 79.6559 51.571C78.9984 51.571 78.3219 51.437 77.7121 51.2168L77.7788 50.0296L77.7693 50.0201ZM79.7607 48.1054C80.6182 48.1054 80.9612 47.4926 80.9612 46.1906C80.9612 44.9844 80.5039 44.3429 79.8655 44.3621C79.1413 44.3812 78.8555 45.0418 78.8555 46.2098C78.8555 47.5501 79.2747 48.0958 79.7511 48.0958L79.7607 48.1054Z" fill="#F0EDE8"/>
<path d="M83.5092 43.7415C84.0809 43.4543 84.6907 43.3203 85.3005 43.3203C87.0728 43.3203 87.492 44.1819 87.492 45.6084V48.088C87.492 48.4135 87.511 48.7485 87.5587 49.1028H86.3105C86.2438 48.8347 86.2247 48.5954 86.2438 48.3369H86.2247C85.8722 48.7964 85.4625 49.1985 84.624 49.1985C83.7474 49.1985 82.9375 48.5858 82.9375 47.5327C82.9375 45.9913 84.1857 45.5988 85.9389 45.5988H86.2057V45.3786C86.2057 44.8042 85.9389 44.2777 85.1576 44.2777C84.5859 44.2968 84.0618 44.4979 83.6045 44.8521L83.5187 43.7511L83.5092 43.7415ZM86.1962 46.336H86.0628C84.9003 46.336 84.2048 46.5753 84.2048 47.4178C84.1857 47.8773 84.5287 48.2794 84.967 48.2986H85.0718C85.8817 48.2986 86.1866 47.6859 86.1866 46.6711V46.3456L86.1962 46.336Z" fill="#F0EDE8"/>
<path d="M88.5867 44.3543C88.5867 44.0288 88.5676 43.7416 88.5391 43.4065H89.8254C89.8444 43.6937 89.873 44 89.873 44.2872H89.8921C90.0922 43.933 90.4828 43.3203 91.3975 43.3203C92.6838 43.3203 93.084 44.2872 93.084 45.4265V49.0932H91.7024V45.6658C91.7024 44.7851 91.4833 44.4117 90.9116 44.4117C90.216 44.4117 89.9492 45.0244 89.9492 45.752V49.074H88.5962V44.3447H88.5772L88.5867 44.3543Z" fill="#F0EDE8"/>
<path d="M94.125 40.9766H95.5447V42.3169H94.125V40.9766ZM94.1441 43.4178H95.4971V49.1333H94.1441V43.4178Z" fill="#F0EDE8"/>
<path d="M96.5911 47.9346L99.0208 44.4593H96.6578V43.4062H100.374V44.5742L97.9917 48.0686H100.46V49.1217H96.5625L96.5816 47.9346H96.5911Z" fill="#F0EDE8"/>
<path d="M101.486 43.7415C102.057 43.4543 102.667 43.3203 103.277 43.3203C105.049 43.3203 105.469 44.1819 105.469 45.6084V48.088C105.469 48.4135 105.488 48.7485 105.535 49.1028H104.287C104.22 48.8347 104.201 48.5954 104.22 48.3369H104.201C103.849 48.7964 103.439 49.1985 102.601 49.1985C101.724 49.1985 100.914 48.5858 100.914 47.5327C100.914 45.9913 102.162 45.5988 103.915 45.5988H104.182V45.3786C104.182 44.8042 103.915 44.2777 103.134 44.2777C102.562 44.2968 102.038 44.4979 101.581 44.8521L101.495 43.7511L101.486 43.7415ZM104.173 46.336H104.039C102.877 46.336 102.181 46.5753 102.181 47.4178C102.162 47.8773 102.505 48.2794 102.944 48.2986H103.048C103.858 48.2986 104.163 47.6859 104.163 46.6711V46.3456L104.173 46.336Z" fill="#F0EDE8"/>
<path d="M106.959 42.2494L108.312 41.8281V43.4365H109.446V44.4513H108.312V47.4191C108.312 48.0318 108.531 48.2137 108.922 48.2137C109.093 48.2137 109.293 48.1946 109.427 48.0797V49.0466C109.141 49.1807 108.817 49.2477 108.512 49.219C107.502 49.219 106.911 48.7594 106.911 47.5723V44.4513H106.016V43.4365H106.911L106.959 42.2494Z" fill="#F0EDE8"/>
<path d="M110.281 40.9766H111.682V42.3169H110.281V40.9766ZM110.3 43.4178H111.682V49.1333H110.329L110.31 43.4178H110.3Z" fill="#F0EDE8"/>
<path d="M114.937 43.3203C116.1 43.3203 117.434 43.933 117.434 46.2403C117.434 48.5475 116.1 49.1889 114.937 49.1889C113.775 49.1889 112.422 48.6432 112.422 46.2403C112.441 43.933 113.775 43.3203 114.937 43.3203ZM114.937 48.2411C115.814 48.2411 116.033 47.2263 116.033 46.2594C116.033 45.2925 115.833 44.3064 114.937 44.3064C114.042 44.3064 113.842 45.3212 113.842 46.2594C113.842 47.1976 114.042 48.2411 114.937 48.2411Z" fill="#F0EDE8"/>
<path d="M118.516 44.3543C118.516 44.0288 118.497 43.7416 118.469 43.4065H119.755C119.774 43.6937 119.803 44 119.803 44.2872H119.822C120.022 43.933 120.413 43.3203 121.327 43.3203C122.614 43.3203 123.014 44.2872 123.014 45.4265V49.0932H121.661V45.6658C121.661 44.7851 121.442 44.4117 120.87 44.4117C120.174 44.4117 119.908 45.0244 119.908 45.752V49.074H118.555L118.507 44.3447L118.516 44.3543Z" fill="#F0EDE8"/>
<path d="M59.1633 31.3781C59.754 32.077 60.7831 32.4982 61.3929 33.2258C60.9546 31.1388 59.3539 29.4251 57.4577 29.0039C58.3724 29.7028 58.5725 30.6697 59.1633 31.3781ZM36.2955 36.7011C37.6104 33.8194 39.5542 34.4417 40.3831 31.7132C39.8972 32.527 37.7534 32.8812 36.791 35.0353C37.296 33.762 37.0578 31.8281 37.8868 30.7463C35.3522 32.661 36.4194 35.7341 36.286 36.7011M38.649 43.5845C38.8872 44.6854 38.1917 46.313 39.3065 47.8447C38.1726 46.5714 35.762 46.2364 34.7805 44.2834C36.0097 49.0319 39.2016 48.0649 40.6404 49.0989C39.4399 47.3852 40.4213 46.2459 38.649 43.5845ZM38.2774 46.5714C37.5818 43.91 38.8205 42.9909 37.8582 40.4348C37.7724 41.89 36.8101 42.5697 37.4389 45.2024C36.3051 42.9622 34.5519 42.1293 34.0469 40.6071C34.0945 44.7812 37.4389 45.4035 38.2679 46.5619M43.4131 51.004C42.4317 49.6446 43.0892 48.8691 40.3546 46.3895C40.9453 47.2895 40.3355 48.4383 42.1935 50.1903C40.3736 49.1085 37.8582 49.5776 36.6386 48.1224C38.7157 52.1433 42.3936 50.4966 43.4227 51.004M56.7908 50.2094C58.6488 48.4287 58.039 47.2895 58.6297 46.4087C55.8761 48.8883 56.5526 49.6637 55.5426 51.0232C56.5907 50.5158 60.2495 52.1624 62.3267 48.1415C61.1261 49.5967 58.6107 49.1085 56.7908 50.2094ZM59.6778 47.8352C60.7736 46.2938 60.0971 44.695 60.3162 43.5749C58.544 46.2555 59.5063 47.3756 58.3248 49.118C59.7731 48.0841 62.9651 49.051 64.1847 44.3025C63.2223 46.2172 60.8117 46.5619 59.6778 47.8447M55.2567 51.2051C54.2753 50.937 53.2653 50.7838 52.2363 50.7455C51.293 50.7264 50.3592 50.8796 49.4826 51.2051C48.606 50.8796 47.6627 50.7168 46.729 50.7455C45.6999 50.7647 44.6899 50.9466 43.7085 51.2051C42.0506 51.6455 40.6023 51.9997 39.3541 51.3582C40.5547 52.4113 41.9553 52.8134 43.9658 52.5932C45.6523 52.4209 47.0053 51.5593 48.5774 51.5784H48.6441C47.6341 52.0858 46.7671 52.7847 46.0143 53.6272L46.7766 53.7325C46.7766 53.7325 47.5865 52.105 49.4445 51.6838C51.3025 52.105 52.1124 53.7325 52.1124 53.7325L52.8747 53.6272C52.1505 52.7656 51.2549 52.0858 50.2449 51.5784H50.3116C51.9123 51.5593 53.2653 52.4113 54.9232 52.5932C56.9623 52.8134 58.3343 52.4209 59.5349 51.3582C58.3343 51.9997 56.886 51.6455 55.2281 51.2051M38.0011 37.534C37.3246 38.8551 36.2479 39.1615 36.3622 41.89C35.7905 39.4678 34.4185 38.5679 34.4375 37.0361C33.4752 41.0762 36.0383 41.5453 36.6862 43.259C36.5814 40.8177 38.1345 40.339 38.0011 37.5435M38.9634 34.4417C38.7252 34.7672 38.5442 34.9299 37.9153 35.4565C36.953 36.2224 36.2955 37.3042 36.0764 38.4913C36.1431 36.9978 35.2188 34.8821 35.8382 33.3216C33.4942 36.6436 35.9716 38.6445 36.0573 39.8508C36.6481 37.5244 38.0487 37.4957 38.9634 34.4417ZM62.9174 38.4626C62.6792 37.2563 62.0218 36.1745 61.0785 35.4278C60.4401 34.9012 60.2686 34.7672 60.0304 34.413C60.926 37.4861 62.3457 37.4861 62.9365 39.8221C63.0222 38.6158 65.4996 36.634 63.1556 33.2929C63.7654 34.8534 62.8698 36.9883 62.9174 38.4626ZM64.9088 40.6167C64.4038 42.158 62.6316 42.9718 61.5168 45.212C62.1742 42.5697 61.1928 41.89 61.0975 40.4443C60.1352 42.9909 61.4024 43.9196 60.6783 46.581C61.5358 45.413 64.8802 44.8003 64.8993 40.6262M60.9641 37.5531C60.8307 40.3199 62.3838 40.8273 62.279 43.2494C62.9365 41.5549 65.471 41.0762 64.5277 37.0266C64.5467 38.5679 63.1747 39.4678 62.603 41.9091C62.7364 39.1806 61.6597 38.8743 60.9641 37.5531ZM39.84 31.3781C40.4308 30.6793 40.6309 29.6836 41.5646 29.0039C39.6399 29.4251 38.0392 31.1101 37.6009 33.2067C38.1917 32.5078 39.2398 32.0866 39.8305 31.3781M58.6011 31.6845C59.4301 34.413 61.3834 33.8194 62.6887 36.6723C62.5553 35.7054 63.6511 32.6323 61.088 30.7558C61.9455 31.8089 61.6978 33.7715 62.1837 35.0448C61.2023 32.8908 59.0585 32.5365 58.5916 31.6845M51.9409 33.245C51.4359 33.0248 50.9118 32.8908 50.3878 32.8237V33.178C50.8928 33.245 51.3692 33.3982 51.8361 33.5705C51.8837 33.4652 51.9218 33.3503 51.9409 33.245ZM51.5502 29.8559L51.655 29.7698L51.455 29.6836L50.9309 29.6645L50.7975 29.7506L50.4926 29.7315V29.7985C50.6927 29.8176 50.8833 29.8176 51.0357 29.8655L51.3025 29.8464L51.5407 29.8655L51.5502 29.8559ZM50.5402 41.2007C50.5402 41.1145 50.4068 41.0283 50.2544 40.9326H50.2353C50.2353 40.9996 50.2163 41.3538 50.2163 41.5453C50.4164 41.44 50.5402 41.3443 50.5402 41.1911M44.4803 34.5087C44.4993 34.4417 44.4993 34.3747 44.5279 34.3077C44.4612 34.3268 44.3945 34.3268 44.3088 34.3268L44.4803 34.4991V34.5087ZM42.0506 32.0674L43.2988 33.3216C41.8124 34.8821 40.9548 36.9883 40.9358 39.1423H39.1826C39.1826 36.4809 40.2116 33.9726 42.0506 32.0674ZM41.2883 41.7655L41.1835 41.7463L41.0787 41.641L40.5737 41.5932L40.7262 41.8134L40.2688 41.7272L40.4022 41.6219L40.2974 41.5166L39.9734 41.6506L39.84 41.8708L39.8877 42.3782L40.2593 43.2781L40.4308 43.5653L40.5356 43.5845L40.2498 43.0388L40.1831 42.7707L40.2498 42.7037L40.2021 42.5505L40.3736 42.5697L40.6404 42.9622L40.7071 42.9813V42.6941L40.8119 42.7612L40.831 42.9143L41.0978 42.9813L41.2312 42.8952L41.2788 42.9143V43.1345L41.4122 43.2877L41.5646 43.3068L41.8886 43.8525L42.0887 43.9196L42.1554 43.6515C42.5079 44.2259 42.8986 44.7525 43.356 45.212L42.1078 46.4661C40.2688 44.5993 39.2016 42.091 39.154 39.4583H40.9072C40.9548 40.272 41.0787 41.0379 41.2979 41.7655M43.0225 39.4774C43.0225 39.6497 43.0415 39.8029 43.0701 39.9848L42.851 40.0327L42.8033 40.2529L42.346 40.8273L42.365 41.6219L41.9077 41.7751H41.6409C41.4027 41.0283 41.2693 40.2816 41.2502 39.487C41.2693 39.487 43.0225 39.487 43.0225 39.487V39.4774ZM43.4131 44.4461L43.8038 44.6663L43.8705 44.7333L43.5846 45.0205C43.4512 44.8865 43.3178 44.7525 43.213 44.5993L43.4131 44.4461ZM45.0139 35.064L46.2621 36.3181C45.9953 36.6053 45.7761 36.9308 45.6046 37.285H45.5189L45.3474 37.3329H45.2807L45.1092 37.5052L45.3474 37.4861L45.5665 37.4382L45.5189 37.5052L45.3474 37.6393H45.2616L44.9948 37.8595L44.728 37.8403L44.3564 38.5392L44.4231 38.6732L44.204 38.9126L44.1849 39.2189H43.3941C43.3941 37.6106 43.9848 36.1649 45.0139 35.064ZM46.2811 40.205L46.3669 40.1571L46.586 40.3295L46.4812 40.3965L46.748 40.5688L46.729 40.3965L46.8623 40.1763L47.0148 40.3295L47.1672 40.5496L46.9005 40.6167L47.0339 40.856L47.2054 40.7507L47.1863 40.6837L47.3197 40.5975L47.3864 40.2241C47.4912 40.4443 47.6246 40.6645 47.8056 40.8369L46.5574 42.091C45.9476 41.4496 45.576 40.6358 45.4617 39.7646L45.7285 40.0327H45.9667L46.2907 40.205H46.2811ZM44.5089 38.8838L44.5279 38.5296L44.7471 38.3956L45.1187 38.4626L45.1854 38.5296C45.1663 38.7307 45.1377 38.9509 45.1187 39.1423H44.6994L44.4993 38.8743L44.5089 38.8838ZM43.9372 40.0901L43.7657 40.3582H43.4798L43.4608 40.339C43.4131 40.071 43.3941 39.7646 43.375 39.5061H43.8991L43.7657 39.9274L43.9372 40.0997V40.0901ZM45.0996 43.5175C44.9662 43.3834 44.8328 43.2494 44.728 43.0962L44.7947 42.6558L44.6232 42.2346L44.5756 41.574L44.3564 41.1528L44.4041 40.8847L44.1373 40.3965L43.9181 40.2912L44.0039 40.0231L43.9181 39.8221L44.0039 39.6019H44.2421L44.3278 39.4678H44.7471L44.8138 39.6019L44.728 40.0231L44.6804 40.0901L44.8328 40.4156L44.728 40.4826L44.6613 40.3965L44.6423 40.4156L44.709 40.6167L44.8424 40.8369H44.9091L44.9281 40.6167L44.8614 40.5496V40.4156L44.8424 40.1284L44.9281 39.621L44.8424 39.487H45.1282C45.1949 40.5401 45.6141 41.5357 46.3288 42.2825L45.0996 43.4887V43.5175ZM55.6474 45.2311C57.1338 43.6898 58.0104 41.6219 58.058 39.4966H59.8112C59.7445 42.1101 58.7155 44.6184 56.8765 46.4853L55.6474 45.2311ZM55.1614 44.7237L55.2948 44.5706L55.1614 43.8908L55.0757 43.8717L55.1424 43.7377L54.8565 43.6515L54.7898 43.8908L54.7708 44.1972L54.7041 44.2642L54.18 43.7377C55.2758 42.5697 55.9046 41.0762 55.9713 39.4966H57.7245C57.6578 41.5645 56.8479 43.5175 55.4092 44.9918L55.171 44.7237H55.1614ZM53.6274 46.3895L53.7989 46.0353L53.7322 45.8821L53.9704 45.662V45.5279L53.7513 45.3939L53.9228 45.0397L54.1896 44.7142L53.9228 44.4461H53.7227L53.5893 44.2451C53.6941 44.1589 53.8084 44.0727 53.8942 43.977L55.1424 45.2311C54.685 45.6524 54.161 46.0449 53.6083 46.3704M53.3701 42.943L53.1986 42.7707L53.332 42.5984L53.5035 42.2729L53.4368 42.1867L53.5416 41.9474L53.5226 41.7272L53.4559 41.507L53.3034 41.4591L53.2367 41.5932L53.151 41.574C53.2844 41.373 53.4178 41.1528 53.5226 40.9326L53.675 40.8656L53.7608 40.7315L53.8084 40.7794L53.9132 40.6454L53.8275 40.5401L53.8942 40.5209L54.0276 40.5879H54.2944L54.4659 40.5018L54.8851 40.3677L54.8184 40.2337L54.7994 40.0614L55.0185 40.1667L55.1043 40.1188L55.0566 39.9465L54.7708 40.0518L54.4659 39.9848L54.2277 39.4966H55.5616C55.4949 40.99 54.9042 42.4165 53.8751 43.4983L53.7036 43.326L53.7703 43.0867L53.6369 42.541L53.3701 42.9622V42.943ZM52.7317 36.3085L53.9799 35.0544C54.2658 35.3799 54.523 35.715 54.7422 36.0883L54.5897 36.1362L54.6088 36.4043L55.0662 36.6915C55.1995 36.9595 55.2853 37.1989 55.352 37.4861L55.2853 37.6201L55.1138 37.7542L55.0662 38.0222L54.9328 38.0892L54.847 38.2233L54.7612 38.1754H54.5897L54.6755 38.0414L54.7422 37.6871L54.8756 37.6201L54.5516 37.2946L54.3134 37.3808L54.2467 37.6201L54.0943 37.7924L53.9228 37.6584L53.8561 37.5052L53.9418 37.4382L53.9895 37.5244L54.0562 37.5052L54.0371 37.3521H53.9323V37.4191L53.8656 37.4382L53.494 36.9787L53.3606 36.8734L53.4082 36.8255L53.5416 36.7776L53.4082 36.7298C53.4082 36.7298 53.2748 36.7489 53.2558 36.7489L53.3225 36.8542H53.1224C53.0176 36.634 52.8842 36.4617 52.7508 36.3085M52.9509 43.0962L52.5793 42.9909L52.4459 43.0388L52.2267 42.8665L52.0266 42.7994C52.1315 42.7324 52.2267 42.6463 52.3125 42.5793L52.6365 42.7994L52.8747 42.9335L53.0081 43.0675L52.9414 43.1154L52.9509 43.0962ZM52.2744 37.2468L52.4268 37.2276V37.2085L52.2744 37.1032L52.322 36.7776L52.4935 36.5766C52.6269 36.7106 52.7127 36.8447 52.8175 36.9978L52.7508 37.1989L52.5793 37.0649L52.4459 37.084L52.5126 37.218H52.5793L52.5126 37.3904L52.4649 37.3233L52.2649 37.2563L52.2744 37.2468ZM54.3706 38.453L54.6945 38.2807L55.0185 38.2328L55.0852 38.0797L55.2567 37.9743L55.3234 37.8212L55.3901 37.5531C55.4092 37.6393 55.4378 37.7254 55.4568 37.8212L55.2853 38.3286V38.5009L55.5044 38.1467C55.5521 38.453 55.5711 38.7594 55.5902 39.0657H54.0562L54.0371 38.9317L54.2086 38.7977L54.2277 38.7115L54.2944 38.6445L54.5135 38.6254L54.5326 38.5392L54.3611 38.453H54.3706ZM54.7231 34.346L55.1424 34.3651L55.2472 34.4991L55.1995 34.6715L55.7903 35.0448L55.9237 35.0257L56.6669 35.8873L56.9718 35.782C57.4577 36.8351 57.715 37.9839 57.7341 39.1423H55.9809C55.9809 38.6828 55.9142 38.2424 55.8094 37.802L55.8761 37.6967L55.9809 37.1223L55.9142 36.5287L55.695 35.849L55.2091 35.1501L55.3425 35.2171L55.4092 35.1501L55.0185 34.8821L54.9995 34.9682L55.3901 35.5427L55.6093 36.0022L55.7617 36.4617L55.8094 36.7681L55.8761 37.2755L55.7236 37.2946C55.7236 37.2946 55.5521 36.9691 55.5044 36.8351L55.5711 36.7011L55.4187 36.4809V36.2798L55.3139 36.1458L55.1805 36.1649C55.1328 36.0788 55.0947 35.9926 55.028 35.8969L55.1138 35.9447L55.1329 35.9256L55.0852 35.8203L55.2186 35.7533L55.171 35.6863L54.9995 35.7533L55.0662 35.4852L54.9613 35.4182L54.8756 35.6384C54.6755 35.3512 54.4563 35.064 54.2372 34.8246L54.7231 34.3364V34.346ZM56.9527 32.0866C58.7726 33.9726 59.7731 36.5 59.8207 39.1423H58.0675C58.0485 37.8499 57.7436 36.5479 57.1719 35.3799L57.1909 35.3608L57.3243 35.4278L57.3434 35.3416L57.0194 34.7959L56.6478 34.2885L56.2095 33.9151C56.0571 33.7428 55.9046 33.5418 55.7522 33.3694L56.9527 32.0962V32.0866ZM49.4921 49.9318C55.3806 49.9318 60.1638 45.1163 60.1447 39.1806C60.1447 33.6854 56.0094 29.09 50.5593 28.5156L50.5402 28.5826C50.5212 28.6879 50.4926 28.7837 50.4735 28.8698C52.8175 29.09 54.9995 30.124 56.686 31.7898L55.5044 32.9769L55.5521 32.7567L55.3996 32.6897L55.1995 32.7089L55.2472 32.5748L55.1138 32.0866L54.8279 31.7611L53.9132 31.2728L53.8465 31.359L53.675 31.4069C53.999 31.8664 54.161 32.4217 54.161 32.9482V33.1684L54.6183 33.7428L54.3992 33.7907L54.5326 34.0109L54.1133 34.4321L53.9418 34.1258C53.8751 34.346 53.7703 34.547 53.6369 34.7385L53.7227 34.8055L52.4745 36.0596C52.4078 35.9926 52.322 35.9256 52.2553 35.8394C52.1219 35.9064 52.0171 35.9447 51.8837 35.9926L51.9885 36.0596L51.9218 36.1266L51.7694 36.1937L51.7027 36.3468L51.6169 36.2607L51.3501 36.3468L51.4168 36.4809L51.5883 36.433L51.7217 36.4521L51.7408 36.3851L51.8266 36.3373L51.8456 36.2894L52.0171 36.2415H52.1505L52.2172 36.3085L51.7313 36.8159L51.7122 36.7681L51.2072 36.8542L51.0738 36.9883L50.969 37.0074L51.293 36.7011L51.1596 36.634L50.8547 37.0266L50.9404 37.0074V37.1606L51.0452 37.2085L51.0643 37.3616L50.8928 37.3425L50.7213 37.3616L50.2639 37.1414C50.2639 37.1414 50.2449 38.3477 50.2449 38.97C51.293 39.3434 52.4364 39.8508 52.4364 41.2102C52.4554 41.7846 52.1505 42.3303 51.6741 42.6654L51.655 42.6846L51.636 42.7037C51.2167 42.9909 50.6546 43.1441 50.1686 43.2973L50.1496 44.2642C50.9118 44.6376 51.8361 45.212 51.7503 46.7916C51.7313 47.1842 51.5788 47.299 51.4645 47.3182C51.0071 47.4235 50.5498 47.4905 50.0829 47.5384V47.8926C52.0743 47.7586 53.9513 46.9257 55.3996 45.5375L56.6478 46.7916C52.665 50.6594 46.3669 50.6594 42.3841 46.8108L43.6323 45.5566C45.0806 46.8969 46.9386 47.7299 48.8823 47.883V47.5288C47.0053 47.3756 45.2521 46.6097 43.8991 45.2886L44.223 44.9631L44.6804 45.0109L44.9186 44.7429L45.557 44.762L45.6427 44.5418L45.6237 44.4557C46.567 45.1546 47.6818 45.6237 48.8633 45.7481V45.3939C47.577 45.2407 46.3478 44.695 45.3855 43.7855L46.6337 42.5314C46.9386 42.7994 47.2721 43.0388 47.6437 43.2111C47.6627 43.0771 47.7104 42.9909 47.7771 42.8856C47.4531 42.7133 47.1672 42.5122 46.9005 42.292L48.1487 41.0379C48.3487 41.1911 48.5679 41.3251 48.8061 41.4113V41.0379C48.6537 40.9709 48.5203 40.8847 48.3869 40.7986L48.7394 40.4443C48.606 40.4252 48.5012 40.3773 48.3678 40.3103L48.1296 40.5496C47.9962 40.4156 47.9104 40.2624 47.8247 40.1093C47.6055 40.0231 47.4055 39.9082 47.2149 39.7838C46.4907 39.3434 46.0524 38.5296 46.0524 37.6776C46.0334 37.1032 46.2049 36.5096 46.5574 36.0692L45.3092 34.8151C46.2049 33.9343 47.3864 33.3599 48.6155 33.1684V32.8142C47.2816 33.0152 46.0334 33.6279 45.071 34.547L44.8519 34.3268C44.8042 34.3938 44.7471 34.4991 44.6804 34.6523L44.8138 34.7863C43.718 35.9543 43.0892 37.5148 43.0606 39.1136H41.2883C41.3074 37.0266 42.1173 35.0448 43.5656 33.5322L44.1373 34.1066H44.204C44.3088 34.0875 44.4231 34.0587 44.5279 34.0204L43.8324 33.3216C44.204 32.9482 44.6232 32.6227 45.0615 32.3355C45.0806 32.2493 45.1092 32.1632 45.1473 32.0674C45.214 31.9334 45.3188 31.8281 45.4141 31.6941C44.7566 32.0674 44.1468 32.5078 43.5942 33.0344L42.346 31.7802C44.0039 30.1527 46.1763 29.1379 48.4917 28.8986C48.4917 28.8507 48.4726 28.8316 48.4726 28.8316C48.4536 28.7454 48.4536 28.6592 48.425 28.5635C42.5365 29.1762 38.2965 34.4321 38.9063 40.3486C39.497 45.7577 44.0706 49.9126 49.5207 49.8839M54.7612 31.426L54.6564 31.2537L54.4373 31.1196L54.2658 31.2537L54.4849 31.3877L54.7517 31.56L54.7708 31.426H54.7612ZM53.6846 36.4139L53.7036 36.5479L54.0085 36.4617L54.0943 36.2894L53.8751 36.0213L53.9799 35.849L54.2658 36.0501L54.3134 36.0022L54.2467 35.9543L54.18 35.8203L54.3134 35.7533L54.18 35.6001L53.9132 35.7341L53.8275 35.9064L53.7608 36.0596L53.8942 36.2607L53.8465 36.3468L53.675 36.4139H53.6846ZM41.0215 44.3121L41.0406 44.2451L40.8881 43.8908L40.7166 43.8238L41.0215 44.3121ZM48.1772 37.6967C48.1772 38.0031 48.3487 38.2041 48.6822 38.3764V38.2424L48.4821 38.0222L48.587 37.8212L48.6727 37.802C48.6537 37.4478 48.6537 37.0744 48.6537 37.0074H48.6346C48.3487 37.1797 48.1963 37.3999 48.1772 37.6871" fill="#F0EDE8"/>
<path d="M50.1484 45.336C50.6915 45.604 51.1965 45.9966 51.4157 46.7433C51.5014 45.537 50.8249 45.0105 50.1675 44.6562L50.1484 45.336Z" fill="#F0EDE8"/>
<path d="M53.7983 33.01C53.7983 31.909 52.9884 30.6836 51.0446 30.2623C50.8445 30.2432 50.6539 30.1953 50.4538 30.1953C50.4538 30.3676 50.4348 30.741 50.4348 30.741C50.4348 30.875 50.4157 31.3154 50.4157 31.4016C50.5491 31.4207 50.6825 31.4207 50.7873 31.4495C51.9212 31.7175 52.3214 32.3685 52.3214 33.01C52.3214 34.0631 51.4257 34.4651 50.33 34.7428L49.9584 34.8289C49.6344 34.896 49.2819 35.0013 48.9484 35.097C48.815 35.1161 48.7102 35.164 48.5768 35.2023C47.3762 35.5757 46.3281 36.1692 46.3281 37.6627C46.3281 39.1562 47.5287 39.7115 48.6911 40.0848C48.6911 39.6636 48.6721 39.2232 48.6721 38.7924C48.148 38.5531 47.7955 38.218 47.7955 37.6914C47.7955 37.1649 48.1194 36.8585 48.6244 36.6384C48.7292 36.5905 48.8436 36.5522 48.996 36.5043C49.2819 36.399 49.6058 36.332 49.9584 36.2363L50.33 36.1501C51.9879 35.7289 53.8268 35.231 53.8078 33.01" fill="#F0EDE8"/>
<path d="M47.9062 43.5388C47.9062 44.1515 48.3445 44.4578 48.7828 44.7259C48.7828 44.6206 48.7638 43.6919 48.7638 43.6728C48.7828 43.5005 48.9353 43.3664 49.0878 43.2994C49.3069 43.1941 49.5451 43.0984 49.7833 43.0314C49.9167 42.9835 50.0215 42.9452 50.1549 42.8973C51.0506 42.6293 52.0796 42.2846 52.0796 41.2028C52.0796 40.121 51.203 39.6614 50.2407 39.3359C50.2216 39.6902 50.2216 40.1976 50.2216 40.5422C50.6409 40.6954 50.8981 40.8964 50.8981 41.2028C50.8981 41.5953 50.4789 41.8155 50.2026 41.9304C50.0692 41.9783 49.8976 42.0357 49.831 42.0644C49.5927 42.1314 49.345 42.2176 49.1068 42.3038C48.9734 42.3516 48.8686 42.3899 48.7352 42.4569C48.3445 42.6771 47.9062 42.9835 47.9062 43.5388Z" fill="#F0EDE8"/>
<path d="M48.5322 30.3594C48.1606 30.4934 47.808 30.6274 47.4555 30.7998C47.0839 30.9338 46.5408 30.9529 45.9691 31.5656C45.7976 31.7858 45.6166 32.006 45.4641 32.2262C45.2926 32.4656 45.2926 32.8677 45.1592 33.0591C44.9877 33.3655 45.0258 33.5474 45.0258 33.5474C45.0067 33.6814 44.921 33.8154 44.8257 33.9208C44.6542 34.141 44.3684 34.2463 44.1016 34.1888C44.3684 34.3228 44.7114 34.1409 44.7114 34.1409C44.6447 34.3133 44.6066 34.4665 44.578 34.6484C44.8638 33.9878 45.1211 33.7676 45.2164 33.6814C45.3498 33.7006 45.588 33.7006 46.0739 33.4134C46.598 33.107 47.4079 32.5996 47.627 32.2932C47.8652 31.9677 48.1987 31.7188 48.5703 31.5944C48.5512 31.154 48.5227 30.7327 48.5227 30.3594M46.2931 32.3794L46.0263 32.4464L46.3502 31.9007L46.7218 31.9199L46.2835 32.3794" fill="#F0EDE8"/>
<path d="M49.6466 43.475C49.6466 43.475 49.4751 43.542 49.3798 43.5803C49.294 43.5995 49.1797 43.6474 49.1797 43.6856C49.1797 43.6856 49.2654 48.3671 49.2654 48.4533C49.2654 49.4202 49.7514 49.4202 49.7514 48.4533C49.7514 48.3863 49.8562 43.3984 49.8562 43.3984C49.8562 43.3984 49.7037 43.4176 49.637 43.4655" fill="#F0EDE8"/>
<path d="M49.1187 41.9114C49.2712 41.8635 49.4236 41.8061 49.557 41.7774C49.6618 41.7582 49.7571 41.7103 49.8619 41.6912C49.8619 41.404 49.9477 37.3352 49.9667 36.6172C49.6428 36.6842 49.3283 36.7895 49.0234 36.8852C49.0425 37.4309 49.1092 41.4806 49.1092 41.921" fill="#F0EDE8"/>
<path d="M49.53 26.375C48.177 26.375 48.7391 28.4238 48.8535 29.0748C48.8535 29.0939 48.9583 33.6701 48.9869 34.7232C49.206 34.6562 49.4061 34.6179 49.5967 34.57L50.0159 34.4647C50.035 33.4499 50.1493 29.0748 50.1493 29.0556C50.216 28.3759 50.9402 26.375 49.5395 26.375" fill="#F0EDE8"/>
</g>
<defs>
<clipPath id="clip0_1641_814">
<rect width="88.9556" height="27.3709" fill="white" transform="translate(34.0625 26.3672)"/>
</clipPath>
</defs>
</svg>
