<svg width="158" height="81" viewBox="0 0 158 81" fill="none" xmlns="http://www.w3.org/2000/svg">
<g clip-path="url(#clip0_1641_770)">
<path d="M50.0885 32.0733H48.6399C45.9794 32.0733 44.5782 33.4092 44.5782 35.3894C44.5782 37.635 45.5439 38.6772 47.5416 40.0226L49.1796 41.1216L44.4456 48.1614H40.9141L45.1652 41.8701C42.713 40.1268 41.3401 38.4498 41.3401 35.5789C41.3401 31.9975 43.8491 29.5625 48.6115 29.5625H53.3455V48.1614H50.0885V32.0733Z" fill="#F0EDE8"/>
<path d="M79.7521 34.6953H70.4167V35.8418C70.4167 39.1295 70.1989 43.3836 69.0723 45.6386H68.0781V51.2287H71.0416V48.1494H78.2278V51.2287H81.1912V45.6386H79.7616V34.6953H79.7521ZM76.5519 45.6386H72.0263C72.9162 43.6015 73.1529 39.9443 73.1529 37.6135V37.2156H76.5425V45.6481L76.5519 45.6386Z" fill="#F0EDE8"/>
<path d="M63.5204 40.0201H59.2409V34.6953H56.0312V48.1589H59.2409V42.5404H63.5204V48.1589H66.7205V34.6953H63.5204V40.0201Z" fill="#F0EDE8"/>
<path d="M113.094 36.9405C114.334 36.9405 115.546 37.3668 116.19 37.7743V35.074C115.518 34.695 114.334 34.4297 112.744 34.4297C108.654 34.4297 106.523 37.3479 106.523 41.441C106.523 45.932 108.597 48.4238 112.876 48.4238C114.353 48.4238 115.404 48.1585 116.19 47.5901V44.994C115.385 45.553 114.41 45.9036 113.066 45.9036C110.775 45.9036 109.837 44.1413 109.837 41.3557C109.837 38.5701 110.992 36.9405 113.094 36.9405Z" fill="#F0EDE8"/>
<path d="M106.095 34.6953H102.857L98.3408 40.9012V34.6953H95.1406V48.1589H98.3408V41.5455L103.075 48.1589H106.71L101.569 40.9012L106.095 34.6953Z" fill="#F0EDE8"/>
<path d="M87.7096 34.4297C83.8088 34.4297 81.9531 37.3953 81.9531 41.4694C81.9531 46.1499 84.2633 48.4238 88.3629 48.4238C90.408 48.4238 91.9134 47.8933 92.8602 47.249V44.6529C91.8661 45.3256 90.1997 45.913 88.6375 45.913C86.2989 45.913 85.4089 44.814 85.2764 42.5685H93.0022V40.882C93.0022 36.2015 90.9287 34.4297 87.7286 34.4297H87.7096ZM89.7263 40.2093H85.2574C85.3426 38.068 86.119 36.9405 87.6528 36.9405C89.1866 36.9405 89.7263 38.248 89.7263 39.9345V40.1998V40.2093Z" fill="#F0EDE8"/>
</g>
<defs>
<clipPath id="clip0_1641_770">
<rect width="75.2701" height="21.6687" fill="white" transform="translate(40.9141 29.5703)"/>
</clipPath>
</defs>
</svg>
