<svg width="158" height="81" viewBox="0 0 158 81" fill="none" xmlns="http://www.w3.org/2000/svg">
<g clip-path="url(#clip0_1641_884)">
<path d="M108.525 31.1562H101.178V31.8417C101.474 31.8613 101.761 31.9103 102.057 31.969C102.287 32.0082 102.497 32.1061 102.678 32.253C103.118 32.6349 103.108 33.3498 103.108 34.6522V43.3774C103.108 45.1498 103.261 47.6665 100.806 47.6371C99.7548 47.6273 98.6752 46.8537 98.3408 45.4534H97.5C97.8535 47.8036 99.0764 49.3998 102.038 49.3998H102.048C104.56 49.3998 106.806 48.2149 106.806 44.1901V34.662C106.806 33.3596 106.806 32.6741 107.236 32.2922C107.522 32.0474 107.752 31.9299 108.516 31.8417V31.1562H108.525Z" fill="#F0EDE8"/>
<path d="M116.95 31.1562H109.594V31.8417C110.358 31.9201 110.597 32.0376 110.874 32.2824C111.227 32.586 111.285 33.0952 111.304 33.9471V46.1291C111.294 46.9908 111.227 47.4902 110.874 47.7938C110.597 48.0386 110.358 48.1561 109.594 48.2345V48.9297H120.696L121.871 45.4436H121.011C120.161 47.3531 118.842 47.5784 117.629 47.5784C116.645 47.5784 115.985 47.5196 115.527 47.216C115.154 46.9712 115.011 46.3249 115.001 45.2282V34.662C115.001 33.3596 115.001 32.6447 115.431 32.2628C115.708 32.018 116.177 31.9299 116.941 31.8515V31.1562H116.95Z" fill="#F0EDE8"/>
<path d="M129.199 31.1562H121.852V31.8417C122.616 31.9201 122.855 32.0376 123.132 32.2824C123.485 32.586 123.543 33.0952 123.562 33.9471V46.1291C123.552 46.9908 123.485 47.4902 123.132 47.7938C122.855 48.0386 122.616 48.1561 121.852 48.2345V48.9297H132.953L134.129 45.4436H133.269C132.418 47.3531 131.1 47.5784 129.887 47.5784C128.902 47.5784 128.243 47.5196 127.785 47.216C127.412 46.9712 127.269 46.3249 127.259 45.2282V34.662C127.259 33.3596 127.259 32.6447 127.689 32.2628C127.966 32.018 128.434 31.9299 129.199 31.8515V31.1562Z" fill="#F0EDE8"/>
<path d="M79.9145 54.3136C80.2584 54.1471 80.5833 53.961 80.889 53.7358C80.9559 53.6869 81.0228 53.6477 81.0896 53.5987C81.4814 53.2952 81.8444 52.9622 82.1693 52.5999C82.6087 52.12 83.01 51.601 83.354 51.0527C83.631 50.6218 83.889 50.1713 84.1183 49.7013C85.0068 47.8701 85.6087 45.9116 85.8954 43.8943C86.0864 42.6213 86.182 41.3384 86.1724 40.0556C86.1724 38.7728 86.0769 37.4802 85.8954 36.2071C85.6087 34.1899 85.0068 32.2314 84.1183 30.4002C84.0132 30.1945 83.8985 29.9791 83.7839 29.7734C83.3062 30.6744 82.9049 31.6242 82.5896 32.5937C83.1629 34.3857 83.5164 36.2463 83.6406 38.1265C83.6788 38.763 83.6979 39.3995 83.6979 40.036C83.6979 40.6725 83.6788 41.3189 83.6406 41.9456C83.5068 44.2468 83.0005 46.5089 82.1597 48.6437C81.8253 49.4663 81.4336 50.2693 80.975 51.0331C80.8699 51.2093 80.7648 51.3954 80.6502 51.5717C80.4209 51.9242 80.1629 52.2767 79.8954 52.6097C79.5897 53.0014 79.2648 53.3735 78.9209 53.7162C78.5483 54.0883 78.1565 54.4311 77.7362 54.7347C77.6979 54.764 77.6693 54.7836 77.6406 54.813V54.8522C78.4241 54.8228 79.1884 54.6367 79.9049 54.294L79.9145 54.3136Z" fill="#F0EDE8"/>
<path d="M84.4327 54.3082C84.7767 54.1418 85.1015 53.9557 85.4168 53.7305C85.4837 53.6815 85.5505 53.6423 85.6174 53.5934C86.9263 52.5847 87.9104 51.1746 88.6556 49.6959C89.5441 47.8647 90.1461 45.9062 90.4327 43.889C90.6238 42.6159 90.7193 41.3331 90.7097 40.0503C90.7097 38.7674 90.6142 37.4748 90.4327 36.2018C90.1461 34.1845 89.5441 32.226 88.6556 30.3948C87.9773 29.0239 87.0792 27.7214 85.9136 26.7422C85.541 27.1535 85.197 27.5843 84.8722 28.0446C84.9868 28.2013 85.0919 28.358 85.197 28.5146C87.0601 31.3545 87.9582 34.7525 88.1779 38.1309C88.2257 38.7674 88.2448 39.404 88.2448 40.0405C88.2448 40.677 88.2257 41.3233 88.1779 41.95C87.9486 45.3382 87.0601 48.7363 85.197 51.5663C84.9677 51.9188 84.7098 52.2714 84.4423 52.6043C84.1365 52.996 83.8117 53.3681 83.4677 53.7109C83.0951 54.083 82.7034 54.4257 82.283 54.7293L82.1875 54.8076V54.8468C82.9709 54.8174 83.7353 54.6314 84.4423 54.2886L84.4327 54.3082Z" fill="#F0EDE8"/>
<path d="M90.1252 53.5956C91.4341 52.587 92.4182 51.1768 93.1634 49.6982C94.052 47.8669 94.6539 45.9084 94.9405 43.8912C95.1316 42.6181 95.2271 41.3353 95.2176 40.0525C95.2176 38.7697 95.122 37.477 94.9405 36.204C94.6539 34.1867 94.052 32.2282 93.1634 30.397C92.4278 28.9086 91.4437 27.5082 90.1252 26.4996C89.1507 25.7554 87.9182 25.2657 86.6953 25.2266V25.2657C87.8896 26.1177 88.9023 27.2928 89.7049 28.5169C91.5679 31.3567 92.466 34.7547 92.6953 38.1331C92.7335 38.7697 92.7622 39.4062 92.7622 40.0427C92.7622 40.6792 92.743 41.3255 92.6953 41.9522C92.466 45.3405 91.5775 48.7385 89.7049 51.5685C88.8928 52.7926 87.8896 53.9579 86.6953 54.8197V54.8588C87.9278 54.8295 89.1507 54.33 90.1252 53.5858V53.5956Z" fill="#F0EDE8"/>
<path d="M84.4305 25.7828C84.0865 25.9492 83.7617 26.1353 83.4559 26.3605C83.3891 26.4095 83.3222 26.4487 83.2553 26.4976C82.8636 26.8012 82.5005 27.1341 82.1757 27.4965C81.7362 27.9763 81.3445 28.4953 80.991 29.0437C80.7139 29.4843 80.456 29.9348 80.2267 30.3951C79.3381 32.2263 78.7362 34.1848 78.4496 36.202C78.2585 37.4751 78.163 38.7579 78.1725 40.0505C78.1725 41.3333 78.2681 42.626 78.4496 43.8892C78.7362 45.9065 79.3381 47.8748 80.2267 49.6962C80.3317 49.9018 80.4464 50.1173 80.561 50.3229C81.0388 49.422 81.44 48.4721 81.7553 47.4929C81.1725 45.7008 80.8286 43.8402 80.7044 41.9601C80.6661 41.3235 80.647 40.687 80.647 40.0505C80.647 39.414 80.6661 38.7677 80.7044 38.141C80.8381 35.8397 81.3445 33.5776 82.1852 31.4429C82.5196 30.6105 82.9114 29.8173 83.3699 29.0535C83.475 28.8772 83.5801 28.6911 83.6948 28.5149C83.9241 28.1623 84.182 27.8098 84.4496 27.4769C84.7553 27.0852 85.0801 26.7131 85.4241 26.3703C85.7967 25.9982 86.1884 25.6555 86.6088 25.3519C86.647 25.3225 86.6757 25.3029 86.7043 25.2735V25.2344C85.9209 25.2638 85.1566 25.4498 84.44 25.7926L84.4305 25.7828Z" fill="#F0EDE8"/>
<path d="M79.9105 25.7808C79.5666 25.9473 79.2417 26.1333 78.9264 26.3585C78.8595 26.4075 78.7927 26.4467 78.7258 26.4956C77.4169 27.5043 76.4328 28.9144 75.6876 30.3931C74.7991 32.2243 74.1972 34.1828 73.9105 36.2001C73.7195 37.4731 73.6239 38.7559 73.6335 40.0485C73.6335 41.3314 73.729 42.624 73.9105 43.8872C74.1972 45.9045 74.7991 47.863 75.6876 49.6942C76.3659 51.0652 77.264 52.3676 78.4296 53.3468C78.8022 52.9355 79.1462 52.5047 79.471 52.0542C79.3564 51.8975 79.2513 51.7408 79.1462 51.5842C77.2831 48.7443 76.385 45.3463 76.1653 41.9679C76.1271 41.3314 76.0984 40.6948 76.0984 40.0583C76.0984 39.4218 76.1175 38.7755 76.1653 38.1488C76.3946 34.7606 77.2831 31.3625 79.1462 28.5325C79.3755 28.18 79.6334 27.8274 79.9009 27.4945C80.2067 27.1028 80.5315 26.7307 80.8755 26.3879C81.2481 26.0158 81.6398 25.6731 82.0602 25.3597C82.0984 25.3303 82.127 25.3107 82.1557 25.2814V25.2422C81.3723 25.2716 80.6079 25.4576 79.9009 25.8004L79.9105 25.7808Z" fill="#F0EDE8"/>
<path d="M74.2173 26.4996C72.9084 27.5082 71.9243 28.9184 71.1887 30.397C70.3002 32.2184 69.6982 34.177 69.4021 36.204C69.211 37.477 69.125 38.7599 69.125 40.0525C69.125 41.3353 69.2205 42.6279 69.4021 43.8912C69.6887 45.9084 70.2906 47.8767 71.1791 49.6982C71.9148 51.1866 72.8989 52.587 74.2173 53.5956C75.1918 54.3496 76.4243 54.8392 77.6472 54.8686V54.8295C76.4434 53.9677 75.4307 52.7926 74.6377 51.5685C72.7747 48.7287 71.8766 45.3307 71.6473 41.9522C71.6091 41.3157 71.5804 40.6792 71.5804 40.0427C71.5804 39.4062 71.5995 38.7599 71.6473 38.1331C71.867 34.7449 72.7651 31.3469 74.6377 28.5169C75.4402 27.2928 76.453 26.1177 77.6568 25.2657V25.2266C76.4243 25.2559 75.2014 25.7554 74.2173 26.4996Z" fill="#F0EDE8"/>
<path d="M82.9649 53.3423C83.3375 52.931 83.6814 52.5001 84.0063 52.0399C83.8916 51.8832 83.7865 51.7265 83.6814 51.5698C83.5668 51.3936 83.4712 51.2173 83.3566 51.0312C83.0031 51.5796 82.6114 52.0986 82.1719 52.5785C82.4203 52.8527 82.6878 53.0975 82.9649 53.3423Z" fill="#F0EDE8"/>
<path d="M85.412 52.3438C85.1063 52.569 84.7719 52.755 84.4375 52.9215C85.1445 53.2643 85.9184 53.4503 86.6923 53.4797V53.4405C86.2337 53.1076 85.8037 52.7452 85.412 52.3438Z" fill="#F0EDE8"/>
<path d="M81.7467 53.4503C81.8709 53.4405 81.9951 53.4111 82.1098 53.3916C81.9856 53.3034 81.8614 53.2055 81.7467 53.1174C81.4505 52.8725 81.1639 52.6179 80.8964 52.3438C80.5907 52.569 80.2563 52.755 79.9219 52.9215C80.39 53.1467 80.8868 53.3034 81.3932 53.3916C81.5174 53.4111 81.6321 53.4307 81.7563 53.4503M82.1862 53.4797V53.4405C82.1862 53.4405 82.148 53.4111 82.1289 53.3916C82.0142 53.4111 81.89 53.4307 81.7658 53.4503C81.9091 53.4699 82.0524 53.4797 82.1957 53.4797H82.1862Z" fill="#F0EDE8"/>
<path d="M81.3851 26.7422C81.0125 27.1535 80.6686 27.5843 80.3438 28.0446C80.4584 28.2013 80.5635 28.358 80.6686 28.5146C80.7832 28.6909 80.8788 28.8672 80.9934 29.0532C81.3469 28.5048 81.7386 27.9858 82.1781 27.506C81.9297 27.2318 81.6622 26.987 81.3851 26.7422Z" fill="#F0EDE8"/>
<path d="M78.9382 26.3625C79.244 26.1373 79.5784 25.9512 79.9128 25.7847C79.2058 25.442 78.4319 25.2559 77.6484 25.2266V25.2657C78.107 25.5987 78.537 25.961 78.9287 26.3625" fill="#F0EDE8"/>
<path d="M84.4284 25.7847C83.9602 25.5595 83.4634 25.4028 82.9571 25.3147C82.8328 25.2951 82.7182 25.2755 82.594 25.2559C82.4507 25.2364 82.3074 25.2266 82.1641 25.2266V25.2657C82.1641 25.2657 82.2023 25.2951 82.2214 25.3147C82.3456 25.4028 82.4698 25.5008 82.5844 25.5889C82.8806 25.8337 83.1672 26.0883 83.4348 26.3625C83.7405 26.1373 84.0749 25.9512 84.4093 25.7847" fill="#F0EDE8"/>
</g>
<defs>
<clipPath id="clip0_1641_884">
<rect width="65.006" height="29.6519" fill="white" transform="translate(69.125 25.2266)"/>
</clipPath>
</defs>
</svg>
