<svg width="158" height="81" viewBox="0 0 158 81" fill="none" xmlns="http://www.w3.org/2000/svg">
<g clip-path="url(#clip0_1641_782)">
<path d="M58.1907 58.0686C57.9975 57.9732 57.7752 57.9923 57.5627 57.9446C56.6739 57.7348 55.8431 57.4106 55.2441 56.6953C54.6064 55.9323 54.4905 55.0644 54.819 54.1679C55.1475 53.3001 55.8914 52.8327 56.7802 52.6992C58.1617 52.4894 59.1858 53.0902 59.6978 54.3301C59.8717 54.7497 60.0359 55.1789 60.3837 55.5127C60.8571 55.9609 61.4271 55.9037 61.7652 55.3601C61.9971 54.9786 62.113 54.5494 62.1034 54.1012C62.1034 46.8625 62.1034 39.6238 62.1034 32.3851C62.1034 31.9178 61.7363 31.5363 61.2629 31.5268C61.2629 31.5268 61.2532 31.5268 61.2435 31.5268C60.8378 31.5268 60.432 31.5268 60.0166 31.5268C59.379 31.5268 58.8283 31.069 58.7027 30.4586C58.5868 29.8196 58.9635 29.1902 59.6012 28.9899C59.833 28.9232 60.0649 28.8945 60.2968 28.9041H71.7547C72.3923 28.9041 72.7015 28.6943 72.9237 28.0934C73.1459 27.4926 73.7738 27.1111 74.4984 27.1016H92.5451C92.8285 27.1016 92.9702 27.2414 92.9702 27.5212V29.4858C92.9702 29.8387 92.9702 29.8387 92.6031 29.8387H87.8885C87.0963 29.8387 86.6616 30.2679 86.6616 31.0499V47.5015C86.6616 48.2168 86.4007 48.7604 85.7631 49.1609C83.9662 50.2863 82.1982 51.4403 80.4206 52.5752C80.3047 52.6515 80.1791 52.7183 80.0438 52.7755C79.3192 53.0521 78.643 52.6229 78.585 51.8599C78.585 51.755 78.585 51.6501 78.585 51.5548V31.4314C78.585 31.2598 78.5753 31.0976 78.5464 30.926C78.4497 30.2011 78.0536 29.8483 77.3097 29.8483C76.4209 29.8483 75.5321 29.8483 74.6337 29.8483C74.025 29.8483 73.7642 30.039 73.5516 30.6017C73.3487 31.1644 72.7981 31.5363 72.1991 31.5363C71.9286 31.5363 71.6484 31.5363 71.3779 31.5363C70.9142 31.5173 70.5181 31.8797 70.5084 32.347C70.5084 32.3565 70.5084 32.3661 70.5084 32.3756V48.9511C70.5277 49.8858 70.2476 50.7918 69.7162 51.5643C69.3105 52.1365 68.7598 52.5371 68.1801 52.9186C66.3059 54.1679 64.4123 55.3982 62.5381 56.6571C61.601 57.2961 60.6059 57.792 59.4756 57.9828C59.292 58.0114 59.0988 57.9542 58.9249 58.0591H58.1713L58.1907 58.0686Z" fill="#F0EDE8"/>
<path d="M94.1094 37.1798C94.1094 33.9562 94.1094 30.7231 94.1094 27.4996C94.1094 27.2325 94.177 27.1562 94.4475 27.1562C96.94 27.1658 99.4326 27.1658 101.925 27.1562C102.186 27.1562 102.234 27.2325 102.234 27.471C102.234 32.5829 102.234 37.7043 102.234 42.8162C102.234 43.522 101.983 44.0847 101.336 44.4852C99.5292 45.6201 97.7419 46.7837 95.945 47.9376C95.7614 48.0616 95.5585 48.1379 95.346 48.1665C94.6504 48.2238 94.2446 47.8614 94.1384 47.0888C94.1287 46.9744 94.119 46.86 94.1287 46.755V37.1798H94.1094Z" fill="#F0EDE8"/>
<path d="M98.161 22.7193H101.233C101.919 22.7002 102.499 23.2247 102.537 23.9019C102.586 24.6553 102.141 25.218 101.397 25.3134C101.262 25.3324 101.117 25.342 100.972 25.342H95.2917C94.799 25.342 94.3546 25.2466 94.0551 24.8079C93.7556 24.3692 93.6977 23.9019 93.9392 23.4345C94.1421 22.9863 94.5961 22.7097 95.0888 22.7288H98.1514L98.161 22.7193Z" fill="#F0EDE8"/>
</g>
<defs>
<clipPath id="clip0_1641_782">
<rect width="47.8991" height="35.3541" fill="white" transform="translate(54.6328 22.7344)"/>
</clipPath>
</defs>
</svg>
