<svg width="158" height="81" viewBox="0 0 158 81" fill="none" xmlns="http://www.w3.org/2000/svg">
<g clip-path="url(#clip0_1641_801)">
<path d="M103.419 35.2939L106.542 32.9922H96.0938V46.8311H106.542V44.5199H99.075V40.9773H105.445V38.6755H99.075V35.2939H103.419Z" fill="#F0EDE8"/>
<path d="M88.2015 38.3819H84.5672V35.2939H90.3594L93.4826 32.9922H81.5859V46.8311H87.8135C91.3058 46.8311 93.3123 45.2492 93.3123 42.4834C93.3123 39.7175 91.4951 38.3914 88.2015 38.3914M87.681 44.5294H84.5672V40.6931H87.681C89.5739 40.6931 90.454 41.3372 90.454 42.616C90.454 43.8947 89.5171 44.5294 87.681 44.5294Z" fill="#F0EDE8"/>
<path d="M115.008 32.9922H109.32V46.8311H112.302V42.9096H115.008C118.643 42.9096 120.895 40.9962 120.895 37.9462C120.895 34.8961 118.643 32.9922 115.008 32.9922ZM114.942 40.6079H112.302V35.2939H114.942C116.854 35.2939 117.904 36.2412 117.904 37.9462C117.904 39.6512 116.854 40.5984 114.942 40.5984" fill="#F0EDE8"/>
<path d="M76.4607 43.8209C75.6657 44.2471 74.7855 44.4745 73.8864 44.465C71.1985 44.465 69.2489 42.5421 69.2489 39.8994C69.2489 37.2566 71.1985 35.3338 73.8864 35.3338C74.8612 35.3243 75.8077 35.6179 76.6027 36.1863L78.7416 34.6044L78.5997 34.4813C77.3504 33.3825 75.6846 32.8047 73.7728 32.8047C71.7001 32.8047 69.8262 33.5056 68.4823 34.7749C67.1383 36.0442 66.3906 37.8439 66.3906 39.8331C66.3906 41.8222 67.1288 43.6504 68.4728 44.967C69.8167 46.2837 71.7001 47.013 73.7539 47.013C75.8077 47.013 77.7857 46.2647 79.0539 44.9007L77.1232 43.4799L76.4607 43.8398V43.8209Z" fill="#F0EDE8"/>
<path d="M59.2935 39.8394C59.2935 39.1574 59.2368 38.4754 59.1137 37.7934L56.6624 39.6025V39.8299C56.6624 44.6797 52.7442 48.6201 47.8984 48.6201C43.0527 48.6201 39.1155 44.6986 39.1155 39.8488C39.1155 34.999 43.0338 31.0586 47.8795 31.0586C49.6494 31.0586 51.3813 31.589 52.8483 32.5931L55.063 30.9544C50.1604 27.0045 42.9864 27.7717 39.0303 32.6784C35.0742 37.5755 35.8408 44.7554 40.7434 48.7148C45.6365 52.6742 52.8199 51.907 56.7666 47.0004C58.4039 44.9733 59.2935 42.4442 59.2935 39.8394Z" fill="#F0EDE8"/>
<path d="M56.9167 32.8672C57.4562 33.5681 57.9199 34.3259 58.2796 35.131L47.8972 42.7941L43.5625 40.0756V36.7982L47.8972 39.5167L56.9167 32.8672Z" fill="#F0EDE8"/>
</g>
<defs>
<clipPath id="clip0_1641_801">
<rect width="84.3937" height="22.8091" fill="white" transform="translate(36.5 28.4297)"/>
</clipPath>
</defs>
</svg>
