<svg width="218" height="33" viewBox="0 0 218 33" fill="none" xmlns="http://www.w3.org/2000/svg">
<g clip-path="url(#clip0_37_26)">
<path d="M15.241 0L7.59375 7.39655H26.2871V25.6034L33.8812 18.2069V0H15.241Z" fill="#04AF9E"/>
<path d="M18.6933 32.9999L26.2875 25.6034H7.59415V7.39648L0 14.8448V32.9999H18.6933Z" fill="#04AF9E"/>
<path d="M59.5316 25.5517L62.6649 22.5V21.1034H46.0427V11.8965H62.6649V7.44824H44.6088L41.4756 10.5V25.5517H59.5316Z" fill="white"/>
<path d="M83.8011 25.5517L86.9344 22.5V7.44824H68.8784L65.7451 10.5V25.5517H83.8011ZM82.3673 21.1034H70.3122V11.8965H82.3673V21.1034Z" fill="white"/>
<path d="M117.842 25.5517L120.975 22.5V7.44824H106.318L103.184 10.5V7.44824H93.0942L89.9609 10.5V25.5517H94.528V11.8965H103.184V25.5517H107.751V11.8965H116.408V25.5517H117.842Z" fill="white"/>
<path d="M151.405 7.44824L148.271 10.5V25.5517H152.839V20.3793H164.894V25.5517H166.328L169.461 22.5V7.44824H151.405ZM164.894 15.9827H152.839V11.8965H164.894V15.9827Z" fill="white"/>
<path d="M190.597 25.5517L193.73 22.5V14.6379H177.108V11.8965H190.597L193.73 8.84479V7.44824H175.674L172.541 10.5V18.4655H189.163V21.1034H175.674L172.541 24.1551V25.5517H190.597Z" fill="white"/>
<path d="M214.867 25.5517L218 22.5V14.6379H201.378V11.8965H214.867L218 8.84479V7.44824H199.944L196.811 10.5V18.4655H213.433V21.1034H199.944L196.811 24.1551V25.5517H214.867Z" fill="white"/>
<path d="M127.135 7.44821L124.002 10.4999V25.5517H128.569V20.3792H142.058L145.191 17.3275V7.39648H127.135V7.44821ZM140.624 15.9827H128.569V11.8965H140.624V15.9827Z" fill="white"/>
</g>
<defs>
<clipPath id="clip0_37_26">
<rect width="218" height="33" fill="white"/>
</clipPath>
</defs>
</svg>
