<svg width="166" height="25" viewBox="0 0 166 25" fill="none" xmlns="http://www.w3.org/2000/svg">
<path d="M11.5463 0L5.75293 5.60345H19.9146V19.3966L25.6677 13.7931V0H11.5463Z" fill="#04AF9E"/>
<path d="M14.1616 25.0001L19.9148 19.3966H5.75316V5.60352L0 11.2461V25.0001H14.1616Z" fill="#04AF9E"/>
<path d="M45.0997 19.3573L47.4734 17.0454V15.9874H34.8808V9.01248H47.4734V5.64258H33.7946L31.4209 7.95449V19.3573H45.0997Z" fill="black"/>
<path d="M63.4855 19.3573L65.8592 17.0454V5.64258H52.1803L49.8066 7.95449V19.3573H63.4855ZM62.3992 15.9874H53.2666V9.01248H62.3992V15.9874Z" fill="black"/>
<path d="M89.2741 19.3573L91.6478 17.0454V5.64258H80.5438L78.1701 7.95449V5.64258H70.526L68.1523 7.95449V19.3573H71.6123V9.01248H78.1701V19.3573H81.63V9.01248H88.1878V19.3573H89.2741Z" fill="black"/>
<path d="M114.701 5.64258L112.327 7.95449V19.3573H115.787V15.4388H124.92V19.3573H126.006L128.38 17.0454V5.64258H114.701ZM124.92 12.1081H115.787V9.01248H124.92V12.1081Z" fill="black"/>
<path d="M144.392 19.3573L146.765 17.0454V11.0893H134.173V9.01248H144.392L146.765 6.70057V5.64258H133.087L130.713 7.95449V13.989H143.305V15.9874H133.087L130.713 18.2993V19.3573H144.392Z" fill="black"/>
<path d="M162.777 19.3573L165.151 17.0454V11.0893H152.559V9.01248H162.777L165.151 6.70057V5.64258H151.472L149.099 7.95449V13.989H161.691V15.9874H151.472L149.099 18.2993V19.3573H162.777Z" fill="black"/>
<path d="M96.3141 5.6427L93.9404 7.95461V19.3574H97.4004V15.4389H107.619L109.993 13.127V5.60352H96.3141V5.6427ZM106.533 12.1082H97.4004V9.01261H106.533V12.1082Z" fill="black"/>
</svg>
