<svg width="69" height="40" viewBox="0 0 69 40" fill="none" xmlns="http://www.w3.org/2000/svg">
<path d="M21.6632 0.703125C16.6952 0.703125 12.4423 4.24721 11.5562 9.1393L10.069 17.316H3.89216L3.02513 22.1005H9.20195L7.87292 29.4165C7.39827 32.0239 5.12626 33.9226 2.47453 33.9226H0.867034L0 38.7071H2.4682C7.43624 38.7071 11.6891 35.163 12.5752 30.2709L14.0624 22.0942H20.2392L21.1063 17.3097H14.9294L16.2585 9.99368C16.7331 7.38625 19.0051 5.48763 21.6569 5.48763H23.258L24.1251 0.703125H21.6569H21.6632Z" fill="#F0EDE8"/>
<path d="M34.0573 39.4026C28.4184 26.8844 28.4184 12.5182 34.0573 0L38.4178 1.9619C33.3421 13.2333 33.3421 26.1629 38.4178 37.4343L34.0573 39.3963V39.4026Z" fill="#F0EDE8"/>
<path d="M64.7042 39.4041L60.3438 37.4422C65.4194 26.1707 65.4194 13.2412 60.3438 1.96971L64.7042 0.0078125C70.3431 12.526 70.3431 26.8922 64.7042 39.4104V39.4041Z" fill="#F0EDE8"/>
</svg>
